<?xml version="1.0" encoding="iso-8859-1"?>
<!-- Generator: Adobe Illustrator 19.0.0, SVG Export Plug-In . SVG Version: 6.00 Build 0)  -->
<svg version="1.1" id="Capa_1" xmlns="http://www.w3.org/2000/svg" xmlns:xlink="http://www.w3.org/1999/xlink" x="0px" y="0px"
	 viewBox="0 0 512 512" style="enable-background:new 0 0 512 512;" xml:space="preserve">
<path style="fill:#EFEFEF;" d="M461.769,58.08c-18.927,0-393.651,0-412.596,0c-15.327,0-27.798,12.471-27.798,27.798
	c0,30.825,0,253.509,0,281.929c0,15.327,12.471,27.798,27.798,27.798c19.919,0,394.171,0,412.596,0
	c15.327,0,27.798-12.471,27.798-27.798c0-37.519,0-252.893,0-281.929C489.567,70.55,477.096,58.08,461.769,58.08z"/>
<path style="fill:#DDDDDD;" d="M50.254,367.807c0-37.519,0-252.893,0-281.929c0-15.327,12.471-27.798,27.798-27.798
	c-15.739,0-26.111,0-28.879,0c-15.327,0-27.798,12.471-27.798,27.798c0,30.825,0,253.509,0,281.929
	c0,15.327,12.471,27.798,27.798,27.798c2.889,0,13.246,0,28.879,0C62.725,395.605,50.254,383.134,50.254,367.807z"/>
<path style="fill:#EAE4D6;" d="M453.339,86.959c-92.389,0-303.758,0-395.736,0l0,0c-4.045,0-7.349,3.276-7.349,7.349
	c0,12.734,0,255.91,0,265.069c0,2.79,1.555,5.217,3.846,6.462c2.538,1.38-24.699,0.887,399.239,0.887
	c4.049,0,7.349-3.28,7.349-7.349c0-10.187,0-251.858,0-265.069C460.688,90.236,457.385,86.959,453.339,86.959z"/>
<path style="fill:#DDD3C0;" d="M81.161,359.377c0-26.376,0-238.559,0-265.069c0-4.069,3.3-7.349,7.349-7.349
	c-33.461,0-32.204-0.311-34.41,0.887c-2.291,1.245-3.846,3.672-3.846,6.462c0,12.734,0,255.91,0,265.069
	c0,4.063,3.295,7.349,7.349,7.349c2.035,0,13.336,0,30.907,0c-1.268,0-2.462-0.321-3.503-0.887
	C82.716,364.594,81.161,362.167,81.161,359.377z"/>
<path style="fill:#EFEFEF;" d="M512,405.568c0-5.546-4.475-10.042-9.996-10.042H9.996c-5.521,0-9.996,4.496-9.996,10.042
	c0,26.703,21.549,48.351,48.132,48.351h415.736C490.451,453.918,512,432.271,512,405.568z"/>
<path style="fill:#DDDDDD;" d="M58.209,405.568c0-5.546,4.475-10.042,9.996-10.042H9.996c-5.521,0-9.996,4.496-9.996,10.042
	c0,26.703,21.549,48.351,48.132,48.351h58.209C79.758,453.918,58.209,432.271,58.209,405.568z"/>
<path style="fill:#CCCCCC;" d="M158.188,395.526v16.427c0,7.023,5.72,12.77,12.712,12.77h170.2c6.992,0,12.712-5.746,12.712-12.77
	v-16.427H158.188z"/>
<path style="fill:#BCBBBB;" d="M189.095,411.953v-16.427h-30.907v16.427c0,7.023,5.72,12.769,12.712,12.769h30.907
	C194.816,424.722,189.095,418.976,189.095,411.953z"/>
<circle style="fill:#FFB70D;" cx="180.87" cy="226.839" r="95.19"/>
<path style="fill:#F2A306;" d="M125.201,258.981c-23.653-40.969-13.384-92.208,22.085-121.212
	c-54.863,20.759-78.27,85.712-48.851,136.665c26.285,45.527,84.499,61.125,130.026,34.84c4.558-2.631,8.81-5.588,12.755-8.814
	C198.363,316.676,148.854,299.95,125.201,258.981z"/>
<path style="fill:#FFB70D;" d="M336.485,295.997h-14.181c-7.682,0-13.908-6.227-13.908-13.908c0-7.682,6.227-13.908,13.908-13.908
	h14.181c7.682,0,13.908,6.227,13.908,13.908C350.393,289.77,344.166,295.997,336.485,295.997z"/>
<path style="fill:#F94A46;" d="M336.485,185.505h-14.181c-7.682,0-13.908-6.227-13.908-13.908c0-7.682,6.227-13.908,13.908-13.908
	h14.181c7.682,0,13.908,6.227,13.908,13.908C350.393,179.279,344.166,185.505,336.485,185.505z"/>
<path style="fill:#70B5E8;" d="M336.485,240.751h-14.181c-7.682,0-13.908-6.227-13.908-13.908c0-7.682,6.227-13.908,13.908-13.908
	h14.181c7.682,0,13.908,6.227,13.908,13.908C350.393,234.524,344.166,240.751,336.485,240.751z"/>
<path style="fill:#F2A306;" d="M329.394,282.088c0-6.503,4.469-11.947,10.499-13.47c-1.093-0.276-2.231-0.438-3.409-0.438h-14.181
	c-7.682,0-13.908,6.227-13.908,13.908s6.227,13.908,13.908,13.908h14.181c1.178,0,2.316-0.162,3.409-0.438
	C333.863,294.036,329.394,288.592,329.394,282.088z"/>
<path style="fill:#EF3C3C;" d="M329.394,171.596c0-6.503,4.469-11.947,10.499-13.47c-1.093-0.276-2.231-0.438-3.409-0.438h-14.181
	c-7.682,0-13.908,6.227-13.908,13.908c0,7.682,6.227,13.908,13.908,13.908h14.181c1.178,0,2.316-0.162,3.409-0.438
	C333.863,183.544,329.394,178.1,329.394,171.596z"/>
<path style="fill:#52A5D8;" d="M329.394,226.842c0-6.503,4.469-11.947,10.499-13.47c-1.093-0.276-2.231-0.438-3.409-0.438h-14.181
	c-7.682,0-13.908,6.227-13.908,13.908c0,7.682,6.227,13.908,13.908,13.908h14.181c1.178,0,2.316-0.162,3.409-0.438
	C333.863,238.79,329.394,233.346,329.394,226.842z"/>
<path style="fill:#F94A46;" d="M85.681,226.842c0,52.57,42.616,95.186,95.186,95.186V131.658
	C128.298,131.658,85.681,174.273,85.681,226.842z"/>
<path style="fill:#EF3C3C;" d="M147.285,137.77c-75.137,28.429-84.045,133.04-12.196,172.542
	c13.592,7.438,29.264,11.716,45.778,11.716v-19.315C108.065,281.393,87.798,186.414,147.285,137.77z"/>
<path style="fill:#70B5E8;" d="M260.583,174.817c-16.995-25.987-46.347-43.161-79.716-43.161l0,0v95.186L260.583,174.817z"/>
<g>
	<path style="fill:#C9B89F;" d="M419.005,179.324h-38.463c-4.267,0-7.727-3.459-7.727-7.727s3.459-7.727,7.727-7.727h38.463
		c4.267,0,7.727,3.459,7.727,7.727S423.273,179.324,419.005,179.324z"/>
	<path style="fill:#C9B89F;" d="M419.005,234.57h-38.463c-4.267,0-7.727-3.459-7.727-7.727s3.459-7.727,7.727-7.727h38.463
		c4.267,0,7.727,3.459,7.727,7.727C426.732,231.11,423.273,234.57,419.005,234.57z"/>
	<path style="fill:#C9B89F;" d="M419.005,289.815h-38.463c-4.267,0-7.727-3.459-7.727-7.727s3.459-7.727,7.727-7.727h38.463
		c4.267,0,7.727,3.459,7.727,7.727S423.273,289.815,419.005,289.815z"/>
</g>
<g>
</g>
<g>
</g>
<g>
</g>
<g>
</g>
<g>
</g>
<g>
</g>
<g>
</g>
<g>
</g>
<g>
</g>
<g>
</g>
<g>
</g>
<g>
</g>
<g>
</g>
<g>
</g>
<g>
</g>
</svg>
