<?xml version="1.0" encoding="iso-8859-1"?>
<!-- Generator: Adobe Illustrator 19.0.0, SVG Export Plug-In . SVG Version: 6.00 Build 0)  -->
<svg version="1.1" id="Capa_1" xmlns="http://www.w3.org/2000/svg" xmlns:xlink="http://www.w3.org/1999/xlink" x="0px" y="0px"
	 viewBox="0 0 511.999 511.999" style="enable-background:new 0 0 511.999 511.999;" xml:space="preserve">
<path style="fill:#DBA579;" d="M492.778,252.543c-0.479-11.4-6.469-21.864-15.695-28.578l-38.863-28.278l0,0
	c0,32.936,0,71.03,0,96.812c-177.678,94.588-170.046,94.659-181.968,94.658c-11.745,0-2.945,0.646-181.969-94.657
	c0,2.463,0-92.42,0-96.812h-0.001L35.42,223.966c-15.938,11.597-15.726,28.693-15.696,28.59
	c-0.051,1.235-0.072,236.423,0.027,239.047c0.808,11.355,10.345,20.397,21.896,20.397h429.209c11.551,0,21.088-9.043,21.896-20.397
	C492.88,488.224,492.78,251.126,492.778,252.543z"/>
<path style="fill:#D39867;" d="M50.657,491.603c-0.1-2.65-0.076-226.526-0.027-227.715c-0.03,0.103-0.242-16.993,15.696-28.59
	l7.956-5.789v-33.821h-0.001L35.42,223.966c-15.938,11.597-15.726,28.693-15.696,28.59c-0.051,1.234-0.072,236.423,0.027,239.047
	c0.808,11.355,10.345,20.397,21.896,20.397h30.907C61.002,511.999,51.465,502.957,50.657,491.603z"/>
<path style="fill:#EAE4D6;" d="M366.805,11.366c-6.612-6.613-14.55-11.357-23.902-11.357c-90.597,0-238.335,0-242.589,0
	c-14.377,0-26.033,11.655-26.033,26.033c0,4.702,0,267.19,0,266.458c179.023,95.305,170.224,94.657,181.969,94.657
	c11.923,0,4.29-0.07,181.968-94.657c0-29.765,0-174.298,0-194.366c0-11.15-5.46-20.813-13.344-28.697L366.805,11.366z"/>
<path style="fill:#DDD3C0;" d="M109.05,26.042c0-14.378,11.655-26.033,26.033-26.033c-20.329,0-33.539,0-34.768,0
	c-14.377,0-26.032,11.655-26.032,26.033c0,4.702,0,267.19,0,266.458c12.479,6.643,24.044,12.82,34.768,18.563
	C109.05,204.26,109.05,132.13,109.05,26.042z"/>
<path style="fill:#F9F6ED;" d="M434.432,80.72L434.432,80.72c-2.127-4.525-4.805-8.593-8.526-12.313
	c-78.227-78.226-56.128-56.878-68.397-65.22l0,0c-9.582-4.361-16.904-2.867-21.692-3.177c0,0,21.692,2.369,21.692,25.548
	c0.136,34.94-0.564,35.387,1.32,40.555c3.061,8.509,11.18,14.607,20.745,14.607h32.332c4.643,0.091,26.313,1.793,26.313,25.71
	C437.858,100.892,439.626,92.131,434.432,80.72z"/>
<path style="fill:#EFECE4;" d="M389.556,63.789c-1.144-4.816-0.355-6.106-0.625-32.358c-0.105-0.105-21.22-21.218-21.116-21.115
	c-4.959-4.949-10.107-6.995-10.305-7.13l0,0c-9.582-4.361-16.904-2.867-21.692-3.177c0,0,21.692,2.369,21.692,25.548
	c0,19.153,0,13.738,0,33.097c0,11.819,9.598,22.065,22.066,22.065h31.422C400.665,80.72,391.926,73.595,389.556,63.789z"/>
<g>
	<path style="fill:#C9B89F;" d="M320.216,71.901H192.286c-4.267,0-7.727-3.459-7.727-7.727s3.459-7.727,7.727-7.727h127.931
		c4.267,0,7.727,3.459,7.727,7.727C327.943,68.442,324.484,71.901,320.216,71.901z"/>
	<path style="fill:#C9B89F;" d="M320.216,104.352H192.286c-4.267,0-7.727-3.459-7.727-7.727c0-4.268,3.459-7.727,7.727-7.727
		h127.931c4.267,0,7.727,3.459,7.727,7.727C327.943,100.894,324.484,104.352,320.216,104.352z"/>
	<path style="fill:#C9B89F;" d="M288.234,136.804h-63.966c-4.267,0-7.727-3.459-7.727-7.727c0-4.268,3.459-7.727,7.727-7.727h63.966
		c4.267,0,7.727,3.459,7.727,7.727C295.961,133.345,292.501,136.804,288.234,136.804z"/>
</g>
<path style="fill:#FFFFFF;" d="M241.323,178.49c-0.058-0.564-0.172-1.112-0.336-1.638c-0.082-0.263-0.177-0.521-0.284-0.772
	c-1.282-3.019-4.281-5.149-7.754-5.149l0,0h-115.48l0,0c-4.614,0-8.418,3.772-8.418,8.418c0,14.34,0,118.166,0,136.938
	c0,4.63,3.788,8.418,8.418,8.418c25.743,0,90.749,0,115.48,0c4.63,0,8.418-3.788,8.418-8.418v-5.223V179.348
	C241.366,179.058,241.352,178.772,241.323,178.49z"/>
<circle style="fill:#F7CF9C;" cx="175.209" cy="229.283" r="25.883"/>
<path style="fill:#FFFFFF;" d="M402.981,176.852c-1.077-3.446-4.301-5.923-8.038-5.923l0,0H279.463l0,0
	c-3.473,0-6.472,2.131-7.754,5.149c-0.107,0.252-0.202,0.509-0.284,0.772c-0.165,0.526-0.279,1.074-0.336,1.638
	c-0.029,0.282-0.043,0.568-0.043,0.857c0,14.34,0,118.166,0,136.938c0,4.63,3.788,8.418,8.418,8.418h16.989
	c11.884,0,90.749,0,98.492,0c4.63,0,8.418-3.788,8.418-8.418c0-18.772,0-122.597,0-136.938
	C403.361,178.496,403.233,177.657,402.981,176.852z"/>
<g>
	<path style="fill:#F9F6ED;" d="M139.957,316.286c0-18.772,0-122.598,0-136.938c0-0.289,0.015-0.575,0.044-0.857
		c0.058-0.564,0.172-1.112,0.336-1.638c0.082-0.263,0.177-0.521,0.284-0.772c1.282-3.019,4.281-5.149,7.754-5.149h-30.907
		c-4.607,0-8.418,3.765-8.418,8.418c0,14.34,0,118.166,0,136.938c0,4.63,3.788,8.418,8.418,8.418c7.758,0,22.998,0,30.907,0
		C143.745,324.704,139.957,320.916,139.957,316.286z"/>
	<path style="fill:#F9F6ED;" d="M301.951,316.286v-5.223V179.348c0-0.289,0.015-0.575,0.044-0.857
		c0.058-0.564,0.172-1.112,0.336-1.638c0.082-0.263,0.177-0.521,0.284-0.772c1.282-3.019,4.281-5.149,7.754-5.149h-30.907
		c-3.473,0-6.472,2.131-7.754,5.149c-0.107,0.251-0.202,0.509-0.284,0.772c-0.165,0.526-0.279,1.074-0.336,1.638
		c-0.029,0.282-0.043,0.568-0.043,0.857c0,14.34,0,118.166,0,136.938c0,4.63,3.788,8.418,8.418,8.418h16.989h13.918
		C305.739,324.704,301.951,320.916,301.951,316.286z"/>
</g>
<path style="fill:#70B5E8;" d="M361.706,278.816h-49.008c-8.547,0-15.475,6.929-15.475,15.476v30.53h79.959v-30.53
	C377.182,285.745,370.254,278.816,361.706,278.816z"/>
<circle style="fill:#F7CF9C;" cx="337.204" cy="229.283" r="25.883"/>
<g>
	<path style="fill:#EAB883;" d="M175.208,229.286c-4.789-8.295-4.459-18.137,0.001-25.88c-4.4-0.005-8.859,1.106-12.945,3.465
		c-12.38,7.148-16.622,22.978-9.474,35.358c7.148,12.38,22.977,16.623,35.358,9.475c4.084-2.359,7.276-5.665,9.473-9.478
		C188.686,242.216,179.998,237.582,175.208,229.286z"/>
	<path style="fill:#EAB883;" d="M337.202,229.286c-4.789-8.295-4.459-18.137,0.001-25.88c-4.4-0.005-8.859,1.106-12.945,3.465
		c-12.38,7.148-16.622,22.978-9.474,35.358c7.148,12.38,22.977,16.623,35.358,9.475c4.084-2.359,7.276-5.665,9.473-9.478
		C350.68,242.216,341.992,237.582,337.202,229.286z"/>
</g>
<path style="fill:#F7CF9C;" d="M438.219,292.5c-184.448,99.463-172.832,94.658-181.969,94.658c-9.182,0,8.42,8.008-236.563-124.098
	c0.023,239.75-0.055,225.452,0.062,228.542c0.808,11.355,10.345,20.397,21.896,20.397h429.209c11.551,0,21.088-9.043,21.896-20.397
	c0.116-3.074,0.04,11.208,0.062-228.542L438.219,292.5L438.219,292.5z"/>
<g>
	<path style="fill:#EAB883;" d="M50.657,491.603c-0.098-2.577-0.06,10.909-0.065-211.869c-9.811-5.295-20.097-10.845-30.904-16.673
		c0.007,230.136-0.066,225.155,0.063,228.542c0.808,11.355,10.345,20.397,21.896,20.397h30.907
		C61.002,511.999,51.465,502.957,50.657,491.603z"/>
	<path style="fill:#EAB883;" d="M19.689,263.06c0.022,239.26-0.056,225.419,0.062,228.542c0.448,6.303,3.592,11.885,8.27,15.611
		l160.02-153.37C179.204,349.079,28.423,267.771,19.689,263.06z"/>
</g>
<path style="fill:#DBA579;" d="M28.021,507.214l22.573-21.636c0.006-128.956-0.002-183.205-0.003-205.854
	c-16.622-8.964-28.62-15.433-30.904-16.665c0.009,323.568-1.183,195.673,0.062,228.542
	C20.183,497.677,23.198,503.371,28.021,507.214z"/>
<path style="fill:#EAB883;" d="M492.814,263.06c-0.023,239.75,0.054,225.452-0.062,228.542c-0.448,6.303-3.592,11.885-8.27,15.611
	l-160.02-153.37C333.297,349.079,484.078,267.771,492.814,263.06z"/>
<path style="fill:#F94A46;" d="M199.713,278.816h-49.008c-8.547,0-15.475,6.929-15.475,15.476v30.53h79.959v-30.53
	C215.188,285.745,208.26,278.816,199.713,278.816z"/>
<path style="fill:#52A5D8;" d="M352.453,278.816h-39.755c-8.547,0-15.475,6.929-15.475,15.476v30.53h39.755v-30.53
	C336.978,285.745,343.906,278.816,352.453,278.816z"/>
<path style="fill:#EF3C3C;" d="M190.459,278.816h-39.755c-8.547,0-15.475,6.929-15.475,15.476v30.53h39.755v-30.53
	C174.984,285.745,181.912,278.816,190.459,278.816z"/>
<g>
</g>
<g>
</g>
<g>
</g>
<g>
</g>
<g>
</g>
<g>
</g>
<g>
</g>
<g>
</g>
<g>
</g>
<g>
</g>
<g>
</g>
<g>
</g>
<g>
</g>
<g>
</g>
<g>
</g>
</svg>
