<?xml version="1.0" encoding="iso-8859-1"?>
<!-- Generator: Adobe Illustrator 19.0.0, SVG Export Plug-In . SVG Version: 6.00 Build 0)  -->
<svg version="1.1" id="Capa_1" xmlns="http://www.w3.org/2000/svg" xmlns:xlink="http://www.w3.org/1999/xlink" x="0px" y="0px"
	 viewBox="0 0 512 512" style="enable-background:new 0 0 512 512;" xml:space="preserve">
<path style="fill:#EAE4D6;" d="M391.514,43.185c-36.131,0-279.738,0-336.197,0c-9.031,0-16.352,7.322-16.352,16.352
	c0,467.9-1.123,438.183,1.974,443.884c5.754,10.593,16.819,8.242,18.23,8.558c104.348,0,224.153,0,328.494,0
	c1.396-0.312,12.489,2.012,18.231-8.558c3.633-6.687,1.974,8.292,1.974-443.884C407.866,50.507,400.545,43.185,391.514,43.185z"/>
<path style="fill:#DDD3C0;" d="M70.195,495.627c0-1.468,0-4.019,0-3.892c0-74.228,0-316.241,0-432.198
	c0-9.03,7.321-16.352,16.352-16.352c-5.183,0-18.98,0-31.23,0c-9.031,0-16.352,7.322-16.352,16.352c0,7.019,0,451.016,0,436.09
	c0,9.001,7.291,16.352,16.352,16.352c1.468,0,3.999,0,3.852,0h27.379C77.493,511.979,70.195,504.636,70.195,495.627z"/>
<g>
	<path style="fill:#FFFFFF;" d="M172.172,81.699c-6.517,0-90.512,0-88.468,0c-2.614,0-4.752,2.138-4.752,4.752v95.797
		c0,2.614,2.138,4.752,4.752,4.752c3.603,0,6.699,0,10.302,0c31.975,0,46.552,0,78.166,0c2.614,0,4.752-2.138,4.752-4.752V86.451
		C176.924,83.837,174.786,81.699,172.172,81.699z"/>
	<path style="fill:#FFFFFF;" d="M172.172,224.619c-16.036,0-67.816,0-88.468,0c-2.614,0-4.752,2.138-4.752,4.752v95.797
		c0,2.614,2.138,4.752,4.752,4.752c16.801,0,71.048,0,88.468,0c2.614,0,4.752-2.138,4.752-4.752v-95.797
		C176.924,226.758,174.786,224.619,172.172,224.619z"/>
	<path style="fill:#FFFFFF;" d="M172.172,367.541c-9.425,0-75.205,0-88.468,0c-2.614,0-4.752,2.138-4.752,4.752v95.797
		c0,2.614,2.138,4.752,4.752,4.752c3.603,0,6.699,0,10.302,0c31.975,0,46.552,0,78.166,0c2.614,0,4.752-2.138,4.752-4.752v-95.797
		C176.924,369.679,174.786,367.541,172.172,367.541z"/>
</g>
<g>
	<path style="fill:#F9F6ED;" d="M109.858,182.247V86.451c0-2.614,2.138-4.752,4.752-4.752c-1.373,0-32.162,0-30.906,0
		c-2.614,0-4.752,2.138-4.752,4.752v95.797c0,2.614,2.138,4.752,4.752,4.752h5.151c9.094,0,20.71,0,25.755,0
		C111.996,186.999,109.858,184.861,109.858,182.247z"/>
	<path style="fill:#F9F6ED;" d="M109.858,325.168v-95.797c0-2.614,2.138-4.752,4.752-4.752c-11.767,0-24.76,0-30.906,0
		c-2.614,0-4.752,2.138-4.752,4.752v95.797c0,2.614,2.138,4.752,4.752,4.752c3.744,0,26.163,0,30.906,0
		C111.996,329.92,109.858,327.782,109.858,325.168z"/>
	<path style="fill:#F9F6ED;" d="M109.858,468.089v-95.797c0-2.614,2.138-4.752,4.752-4.752c-11.767,0-24.76,0-30.906,0
		c-2.614,0-4.752,2.138-4.752,4.752v95.797c0,2.614,2.138,4.752,4.752,4.752c3.744,0,26.163,0,30.906,0
		C111.996,472.842,109.858,470.703,109.858,468.089z"/>
</g>
<path style="fill:#F94A46;" d="M144.174,153.182h-32.472c-5.663,0-10.254,4.591-10.254,10.254v23.641h52.979v-23.641
	C154.428,157.773,149.837,153.182,144.174,153.182z"/>
<circle style="fill:#F7CF9C;" cx="127.94" cy="117.539" r="17.15"/>
<path style="fill:#70B5E8;" d="M144.174,296.103h-32.472c-5.663,0-10.254,4.591-10.254,10.254v23.641h52.979v-23.641
	C154.428,300.694,149.837,296.103,144.174,296.103z"/>
<circle style="fill:#F7CF9C;" cx="127.94" cy="260.459" r="17.15"/>
<path style="fill:#FFB70D;" d="M144.174,439.024h-32.472c-5.663,0-10.254,4.591-10.254,10.254v23.641h52.979v-23.641
	C154.428,443.615,149.837,439.024,144.174,439.024z"/>
<path style="fill:#EF3C3C;" d="M138.192,153.182h-26.49c-5.663,0-10.254,4.591-10.254,10.254v23.641h26.49v-23.641
	C127.938,157.773,132.528,153.182,138.192,153.182z"/>
<path style="fill:#52A5D8;" d="M138.192,296.103h-26.49c-5.663,0-10.254,4.591-10.254,10.255v23.641h26.49v-23.641
	C127.938,300.694,132.528,296.103,138.192,296.103z"/>
<path style="fill:#F2A306;" d="M138.192,439.024h-26.49c-5.663,0-10.254,4.591-10.254,10.254v23.641h26.49v-23.641
	C127.938,443.615,132.528,439.024,138.192,439.024z"/>
<circle style="fill:#F7CF9C;" cx="127.94" cy="403.379" r="17.15"/>
<g>
	<path style="fill:#EAB883;" d="M127.945,100.398c-13.077-0.02-21.499,14.211-14.86,25.712c4.736,8.203,15.225,11.014,23.427,6.278
		c2.709-1.564,4.815-3.762,6.27-6.291C129.59,126.078,121.354,111.852,127.945,100.398z"/>
	<path style="fill:#EAB883;" d="M127.945,243.319c-13.076-0.02-21.5,14.211-14.86,25.712c6.642,11.504,23.177,11.317,29.697-0.013
		C129.592,268.998,121.353,254.775,127.945,243.319z"/>
	<path style="fill:#EAB883;" d="M127.945,386.24c-13.079-0.02-21.498,14.213-14.86,25.712c4.736,8.203,15.225,11.014,23.427,6.278
		c2.709-1.564,4.815-3.762,6.27-6.291C129.59,411.92,121.354,397.694,127.945,386.24z"/>
</g>
<g>
	<path style="fill:#C9B89F;" d="M317.65,112.791H212.206c-4.267,0-7.727-3.459-7.727-7.727s3.459-7.727,7.727-7.727H317.65
		c4.267,0,7.727,3.459,7.727,7.727S321.917,112.791,317.65,112.791z"/>
	<path style="fill:#C9B89F;" d="M317.65,145.242H212.206c-4.267,0-7.727-3.459-7.727-7.727s3.459-7.727,7.727-7.727H317.65
		c4.267,0,7.727,3.459,7.727,7.727C325.377,141.783,321.917,145.242,317.65,145.242z"/>
	<path style="fill:#C9B89F;" d="M357.741,177.692H212.206c-4.267,0-7.727-3.459-7.727-7.727s3.459-7.727,7.727-7.727H357.74
		c4.267,0,7.727,3.459,7.727,7.727C365.467,174.233,362.008,177.692,357.741,177.692z"/>
	<path style="fill:#C9B89F;" d="M357.741,255.712H212.206c-4.267,0-7.727-3.459-7.727-7.727s3.459-7.727,7.727-7.727H357.74
		c4.267,0,7.727,3.459,7.727,7.727S362.008,255.712,357.741,255.712z"/>
	<path style="fill:#C9B89F;" d="M357.741,288.163H212.206c-4.267,0-7.727-3.459-7.727-7.727s3.459-7.727,7.727-7.727H357.74
		c4.267,0,7.727,3.459,7.727,7.727S362.008,288.163,357.741,288.163z"/>
	<path style="fill:#C9B89F;" d="M357.741,320.613H212.206c-4.267,0-7.727-3.459-7.727-7.727s3.459-7.727,7.727-7.727H357.74
		c4.267,0,7.727,3.459,7.727,7.727S362.008,320.613,357.741,320.613z"/>
	<path style="fill:#C9B89F;" d="M357.741,398.633H212.206c-4.267,0-7.727-3.459-7.727-7.727c0-4.268,3.459-7.727,7.727-7.727H357.74
		c4.267,0,7.727,3.459,7.727,7.727C365.467,395.174,362.008,398.633,357.741,398.633z"/>
	<path style="fill:#C9B89F;" d="M357.741,431.084H212.206c-4.267,0-7.727-3.459-7.727-7.727c0-4.268,3.459-7.727,7.727-7.727H357.74
		c4.267,0,7.727,3.459,7.727,7.727C365.467,427.625,362.008,431.084,357.741,431.084z"/>
	<path style="fill:#C9B89F;" d="M357.741,463.534H212.206c-4.267,0-7.727-3.459-7.727-7.727c0-4.268,3.459-7.727,7.727-7.727H357.74
		c4.267,0,7.727,3.459,7.727,7.727C365.467,460.075,362.008,463.534,357.741,463.534z"/>
</g>
<path style="fill:#92B620;" d="M470.656,56.464l-5.352-5.218c-7.753-7.556-3.199-16.772-3.097-20.58
	c0.81-4.722-2.42-9.19-7.179-9.881c-3.631-1.071-13.915,0.343-18.681-9.314l-3.314-6.714c-2.124-4.304-7.368-6.008-11.616-3.774
	c-3.567,1.266-11.035,8.446-20.567,3.434l-6.534-3.435C390.126-1.22,384.85,0.4,382.7,4.756
	c-2.165,3.162-3.996,13.413-14.668,14.964l-7.326,1.065c-4.751,0.69-7.991,5.151-7.179,9.881c0.1,3.751,4.612,13.066-3.097,20.58
	l-5.352,5.218c-3.438,3.35-3.437,8.864,0,12.214l5.352,5.217c7.752,7.557,3.199,16.772,3.097,20.58
	c-0.812,4.732,2.429,9.191,7.179,9.881c3.625,1.069,13.914-0.343,18.681,9.314l3.314,6.715c1.514,3.068,4.571,4.759,7.659,4.759
	c3.296,0,4.815-1.672,10.491-4.42c9.595-5.045,16.895,2.13,20.568,3.435c4.241,2.229,9.488,0.538,11.616-3.774l3.314-6.715
	c4.793-9.713,14.975-8.221,18.681-9.314c4.75-0.69,7.991-5.15,7.179-9.881l-1.24-7.232c-1.832-10.685,7.301-15.464,9.689-18.565
	C474.092,65.327,474.092,59.813,470.656,56.464z"/>
<path style="fill:#EFEFEF;" d="M400.741,89.116c-2.287-0.044-4.436-1.099-5.87-2.88l-12.378-15.378
	c-2.676-3.324-2.15-8.188,1.174-10.864c3.324-2.675,8.189-2.15,10.864,1.174l6.59,8.187l20.511-23.569
	c2.802-3.219,7.683-3.555,10.901-0.756c3.219,2.801,3.558,7.681,0.757,10.901l-26.571,30.532
	C405.209,88.195,403.018,89.158,400.741,89.116z"/>
<path style="fill:#83A00B;" d="M379.51,83.82c-16.081-27.854-7.698-63.1,18.463-80.914l-3.659-1.923
	c-4.19-2.202-9.466-0.582-11.616,3.774c-2.165,3.162-3.996,13.413-14.668,14.964l-7.326,1.065c-4.751,0.69-7.991,5.151-7.179,9.882
	c0.1,3.751,4.612,13.066-3.097,20.579l-5.352,5.218c-3.438,3.349-3.437,8.864,0,12.214l5.352,5.217
	c7.752,7.557,3.199,16.773,3.097,20.58c-0.812,4.731,2.429,9.191,7.179,9.881c3.625,1.069,13.914-0.343,18.681,9.314l3.314,6.715
	c1.514,3.068,4.571,4.759,7.659,4.759c3.296,0,4.815-1.672,10.491-4.42c9.595-5.045,16.895,2.13,20.568,3.435
	c4.241,2.229,9.488,0.538,11.616-3.774l3.042-6.164C413.727,115.564,391.467,104.528,379.51,83.82z"/>
<g>
</g>
<g>
</g>
<g>
</g>
<g>
</g>
<g>
</g>
<g>
</g>
<g>
</g>
<g>
</g>
<g>
</g>
<g>
</g>
<g>
</g>
<g>
</g>
<g>
</g>
<g>
</g>
<g>
</g>
</svg>
