<?xml version="1.0" encoding="iso-8859-1"?>
<!-- Generator: Adobe Illustrator 19.0.0, SVG Export Plug-In . SVG Version: 6.00 Build 0)  -->
<svg version="1.1" id="Capa_1" xmlns="http://www.w3.org/2000/svg" xmlns:xlink="http://www.w3.org/1999/xlink" x="0px" y="0px"
	 viewBox="0 0 512 512" style="enable-background:new 0 0 512 512;" xml:space="preserve">
<path style="fill:#FFB70D;" d="M466.548,200.311c-0.897-172.918,4.147-169.113-9.333-185.431
	C449.713,5.8,438.392,0.017,425.81,0.017C257.484,0.091,266.002-0.171,262.105,0.228c-20.372,2.085-36.588,19.419-36.588,40.526
	c0.146,181.499-2.133,164.818,6.377,181.351v-0.001c13.484,21.135,36.324,18.779,36.968,18.943h154.341
	c0.547-0.139,23.554,2.083,36.968-18.943v0.001C464.088,215.481,466.548,208.886,466.548,200.311z"/>
<path style="fill:#F2A306;" d="M262.8,222.106L262.8,222.106c-4.144-7.01-6.377-13.549-6.377-21.795
	c0.889-171.519-3.786-167.995,8.12-183.89c7.54-10.066,19.463-16.404,32.617-16.404c-31.777,0.067-31.454-0.158-35.056,0.211
	c-20.588,2.107-36.588,19.626-36.588,40.526c0.044,178.977-2.086,165.743,6.377,181.351v-0.001
	c13.484,21.135,36.324,18.779,36.968,18.943h28.299C282.759,241.049,270.049,233.468,262.8,222.106z"/>
<path style="fill:#EFEFEF;" d="M327.224,174.065c-0.089,0-0.177-0.001-0.267-0.003c-4.117-0.079-7.986-1.977-10.568-5.184
	l-32.872-40.837c-4.816-5.983-3.87-14.738,2.114-19.555c5.983-4.815,14.738-3.869,19.555,2.114l22.453,27.894l59.658-68.55
	c5.04-5.794,13.827-6.406,19.621-1.361c5.794,5.042,6.404,13.827,1.361,19.621l-70.564,81.084
	C335.072,172.326,331.244,174.065,327.224,174.065z"/>
<path style="fill:#F7CF9C;" d="M293.589,384.056c7.72-7.72,7.72-20.236,0-27.956s-20.236-7.72-27.956,0l5.694-5.694
	c7.72-7.72,7.72-20.236,0-27.956s-20.236-7.72-27.956,0l5.359-5.359c7.579-7.579,8.141-19.926,0.837-27.77
	c-7.668-8.235-20.563-8.41-28.453-0.526l65.87-65.87c8.148-8.148,7.695-21.642-1.359-29.196c-7.894-6.586-19.615-5.741-26.885,1.528
	l-87.261,87.261c-1.775,1.775-4.8,0.497-4.785-2.013c0.182-30.696-5.302-44.582-5.894-46.311
	c-2.684-7.836-11.714-16.305-24.188-13.639c-9.731,1.87-16.283,11.052-14.896,20.864c2.76,19.526,2.44,39.28-2.897,58.594
	c-3.711,13.431-10.021,14.699-14.659,32.032c-2.487,9.296-2.679,17.375-2.295,23.294c0.426,6.568-1.923,13.011-6.577,17.665
	L76.8,391.492c6.113,2.989,1.192,0.081,84.616,82.881c1.989,1.989,3.527,4.257,4.621,6.677l18.855-18.855
	c5.541-5.541,12.762-8.997,20.51-10.175c14.067-2.138,27.632-8.358,38.788-18.656C245.412,432.314,242.253,435.354,293.589,384.056z
	"/>
<g>
	<path style="fill:#EAB883;" d="M128.427,224.37c-2.776,2.253-4.848,5.273-5.962,8.679
		C124.347,230.08,126.335,227.184,128.427,224.37z"/>
	<path style="fill:#EAB883;" d="M103.226,336.039c-1.581,7.613-1.686,14.248-1.358,19.3c0.426,6.568-1.923,13.011-6.577,17.665
		l-18.488,18.488c6.11,2.988,1.051-0.059,84.616,82.88c1.989,1.989,3.527,4.257,4.621,6.678l18.855-18.855
		c11.262-11.262,20.895-8.744,34.828-13.864C161.166,439.072,114.572,393.876,103.226,336.039z"/>
</g>
<path style="fill:#EFEFEF;" d="M162.449,505.367c8.844-8.844,8.844-23.181,0-32.025l-78.55-78.55
	c-8.844-8.844-23.181-8.844-32.025,0s-8.844,23.181,0,32.025l78.55,78.55C139.268,514.211,153.605,514.211,162.449,505.367z"/>
<path style="fill:#DDDDDD;" d="M128.575,439.468l-44.676-44.676c-8.844-8.844-23.181-8.844-32.025,0s-8.844,23.181,0,32.025
	l44.676,44.676C92.212,452.287,109.347,435.125,128.575,439.468z"/>
<g>
</g>
<g>
</g>
<g>
</g>
<g>
</g>
<g>
</g>
<g>
</g>
<g>
</g>
<g>
</g>
<g>
</g>
<g>
</g>
<g>
</g>
<g>
</g>
<g>
</g>
<g>
</g>
<g>
</g>
</svg>
