<?xml version="1.0" encoding="iso-8859-1"?>
<!-- Generator: Adobe Illustrator 19.0.0, SVG Export Plug-In . SVG Version: 6.00 Build 0)  -->
<svg version="1.1" id="Capa_1" xmlns="http://www.w3.org/2000/svg" xmlns:xlink="http://www.w3.org/1999/xlink" x="0px" y="0px"
	 viewBox="0 0 511.999 511.999" style="enable-background:new 0 0 511.999 511.999;" xml:space="preserve">
<path style="fill:#70B5E8;" d="M491.865,283.162l-11.192-11.323c-2.3-2.327-2.3-6.07,0-8.397l12.375-12.521
	c2.316-2.343,2.316-6.113,0-8.456l-12.375-12.52c-2.3-2.327-2.3-6.071,0-8.397l12.009-12.148c2.519-2.548,2.519-6.647,0-9.195
	l-12.009-12.148c-2.3-2.327-2.3-6.071,0-8.398l12.093-12.23c2.472-2.501,2.472-6.525,0.001-9.025l-12.093-12.234
	c-2.3-2.327-2.3-6.071,0-8.397l10.608-10.731c1.763-1.784,0.5-4.809-2.009-4.809c-10.449,0-59.024,0-69.797,0v52.512
	c0,33.258,0,58.915,0,71.622c0,7.681-3.136,10.817-10.817,10.817c-37.843,0-75.809,0-113.862,0c-7.682,0-13.908,9.318-13.908,16.999
	s6.227,13.908,13.908,13.908c0.397,0,9.723,0,9.597,0c40.122,0,144.655,0,185.415,0C492.377,288.089,493.672,284.99,491.865,283.162
	z"/>
<g>
	<path style="fill:#52A5D8;" d="M311.794,271.052v-13.87c-0.119,0-17.811,0-16.999,0c-7.681,0-13.908,9.318-13.908,16.999
		s6.227,13.908,13.908,13.908c0.397,0,9.723,0,9.597,0h17.763C316.003,284.888,311.794,278.466,311.794,271.052z"/>
	<path style="fill:#52A5D8;" d="M408.658,230.396c-14.038,0-115.917,0-127.77,0c0,9.161,0,34.349,0,43.511h0.014
		c0.147-7.553,6.305-13.634,13.894-13.634c0.397,0,9.749,0,9.597,0c8.264,0,89.762,0,104.265,0c7.682,0,13.908-6.227,13.908-13.908
		S416.339,230.396,408.658,230.396z"/>
</g>
<path style="fill:#4297CC;" d="M311.794,230.396c-17.968,0-12.936,0-30.907,0c0,9.161,0,34.349,0,43.511h0.014
	c0.147-7.553,6.305-13.634,13.894-13.634c0.397,0,9.749,0,9.597,0h7.402L311.794,230.396L311.794,230.396z"/>
<path style="fill:#70B5E8;" d="M411.73,66.598H238.869v165.859c24.313,0,144.471,0,169.788,0c7.682,0,13.908,6.227,13.908,13.908
	c0-12.635,0-38.364,0-71.622V77.434C422.566,71.474,417.69,66.598,411.73,66.598z"/>
<rect x="238.87" y="66.6" style="fill:#52A5D8;" width="36.559" height="165.86"/>
<path style="fill:#EFEFEF;" d="M334.541,113.2c10.257,20.782,9.876,21.271,12.166,21.604l21.961,3.191
	c2.555,0.371,3.575,3.511,1.726,5.313c-16.595,16.177-17.178,15.966-16.787,18.247l3.751,21.872
	c0.436,2.544-2.234,4.485-4.519,3.283c-20.476-10.766-20.482-11.41-22.542-10.327l-19.643,10.327
	c-2.285,1.201-4.956-0.739-4.519-3.283c3.917-22.842,4.513-23.014,2.856-24.629l-15.891-15.49c-1.849-1.802-0.829-4.942,1.726-5.313
	c22.894-3.326,23.276-2.808,24.306-4.895l9.821-19.9C330.097,110.885,333.398,110.885,334.541,113.2z"/>
<path style="fill:#DDDDDD;" d="M331.119,175.185c3.229-21.511,4.928-22.609,2.856-24.629
	c-16.756-16.381-15.924-15.418-16.324-16.025c-0.879,0.41,0.223,0.054-22.824,3.464c-2.555,0.371-3.575,3.511-1.726,5.313
	c15.256,15.505,17.276,15.395,16.787,18.247l-3.751,21.872c-0.436,2.544,2.234,4.485,4.519,3.284
	c20.637-10.794,19.579-10.421,20.439-10.606C331.059,175.811,331.065,175.503,331.119,175.185z"/>
<path style="fill:#F94A46;" d="M245.051,53.25c-8.628,6.306-18.806,6.585-27.816,0v434.416l0,0v10.425
	c0,7.681,6.227,13.908,13.908,13.908c7.682,0,13.908-6.227,13.908-13.908v-5.135l0,0L245.051,53.25L245.051,53.25z"/>
<circle style="fill:#FFB70D;" cx="231.14" cy="33.3" r="33.3"/>
<path style="fill:#F2A306;" d="M231.144,0.01c-25.417-0.026-41.708,27.648-28.837,49.94c12.869,22.289,44.982,22.021,57.668-0.004
	C234.343,49.919,218.355,22.214,231.144,0.01z"/>
<path style="fill:#F7CF9C;" d="M289.686,350.519c-1.615-9.572-10.202-16.407-19.909-16.407h-21.016c-34.633,0-6.755,0-43.17,0
	c-4.674,0-6.988-5.625-3.71-8.956c33.777-34.327,2.268-73.526-15.167-45.525c-18.979,30.481-64.642,44.776-64.642,44.776
	c-5.365,3.637-10.437,7.658-15.031,12.334c-5.381,5.477-12.69,8.63-20.368,8.63H62.707v117.463h29.736
	c8.189,0,16.223,2.585,22.683,7.619c25.194,19.632,47.413,17.212,73.89,17.212h60.507c9.897,0,18.481-7.359,19.436-17.209
	c0.955-9.852-5.707-18.416-14.769-20.485v-0.479h3.96c9.897,0,18.48-7.359,19.435-17.209c1.099-11.331-7.878-20.965-18.995-20.965
	h2.148c9.897,0,18.48-7.359,19.435-17.209c1.098-11.331-7.878-20.964-18.996-20.964l9.542-0.098
	C282.386,373.048,291.714,362.534,289.686,350.519z"/>
<path style="fill:#EAB883;" d="M96.486,399.112c0-28.84,10.131-55.149,26.793-75.103c-0.78,0.266-1.206,0.399-1.206,0.399
	c-5.365,3.637-10.437,7.658-15.031,12.334c-5.381,5.477-12.69,8.63-20.368,8.63H62.707v117.463h29.736
	c16.671,0,22.12,8.58,34.027,15.034C107.919,457.53,96.486,429.749,96.486,399.112z"/>
<path style="fill:#EFEFEF;" d="M41.506,319.021c-13.416,0-24.291,10.875-24.291,24.292v119.163
	c0,13.416,10.875,24.292,24.291,24.292s24.291-10.875,24.291-24.292V343.312C65.798,329.896,54.922,319.021,41.506,319.021z"/>
<path style="fill:#DDDDDD;" d="M41.506,404.438c-13.416,0-24.292-10.875-24.292-24.291v82.329c0,13.416,10.875,24.292,24.292,24.292
	s24.292-10.875,24.292-24.292v-82.329C65.798,393.562,54.922,404.438,41.506,404.438z"/>
<g>
</g>
<g>
</g>
<g>
</g>
<g>
</g>
<g>
</g>
<g>
</g>
<g>
</g>
<g>
</g>
<g>
</g>
<g>
</g>
<g>
</g>
<g>
</g>
<g>
</g>
<g>
</g>
<g>
</g>
</svg>
