<?xml version="1.0" encoding="iso-8859-1"?>
<!-- Generator: Adobe Illustrator 19.0.0, SVG Export Plug-In . SVG Version: 6.00 Build 0)  -->
<svg version="1.1" id="Capa_1" xmlns="http://www.w3.org/2000/svg" xmlns:xlink="http://www.w3.org/1999/xlink" x="0px" y="0px"
	 viewBox="0 0 511.999 511.999" style="enable-background:new 0 0 511.999 511.999;" xml:space="preserve">
<path style="fill:#70B5E8;" d="M128.024,34.335C5.603,105.015-36.342,261.555,34.338,383.977s227.22,164.366,349.641,93.686
	s164.366-227.22,93.686-349.641S250.446-36.345,128.024,34.335z M351.576,421.537c-91.424,52.784-208.328,21.46-261.112-69.965
	S69.004,143.244,160.429,90.46S368.757,69,421.541,160.425S443,368.753,351.576,421.537z"/>
<path style="fill:#52A5D8;" d="M60.265,369.008c-68.167-118.069-31.564-267.86,80.946-341.77
	C9.002,93.728-38.979,256.988,34.338,383.977c70.68,122.421,227.22,164.366,349.641,93.686c4.353-2.513,8.592-5.147,12.74-7.872
	C276.457,530.273,128.432,487.076,60.265,369.008z"/>
<path style="fill:#FFB70D;" d="M400.779,131.193l49.086-42.315C402.928,34.479,333.488,0.044,256.002,0.044
	c0,20.746,0,42.751,0,64.808C313.869,64.852,365.726,90.568,400.779,131.193z"/>
<path style="fill:#F94A46;" d="M64.855,255.999c0-105.568,85.58-191.147,191.147-191.147V0.044
	C114.641,0.044,0.047,114.639,0.047,255.999c0,62.1,22.121,119.029,58.905,163.352l49.893-41.361
	C81.375,344.89,64.855,302.375,64.855,255.999z"/>
<path style="fill:#EF3C3C;" d="M141.211,27.238C-7.216,101.883-45.142,293.923,58.952,419.351l22.735-18.847
	C-12.24,282.266,15.922,109.542,141.211,27.238z"/>
<g>
	<path style="fill:#F48C8C;" d="M252.453,64.897L192.771,7.922c-13.107,3.331-25.807,7.679-38.019,12.945l52.622,50.235
		C221.806,67.316,236.902,65.18,252.453,64.897z"/>
	<path style="fill:#F48C8C;" d="M93.79,58.008l47.348,45.199c9.547-7.188,19.791-13.497,30.609-18.819l-49.115-46.886
		C112.536,43.679,102.901,50.536,93.79,58.008z"/>
</g>
<path style="fill:#EF7B7B;" d="M122.66,37.53c-10.51,6.41-19.767,13.026-28.862,20.486l4.674,4.462
	c8.038-8.249,16.714-16.012,25.988-23.23L122.66,37.53z"/>
<path style="fill:#F48C8C;" d="M68.451,81.847c-7.934,8.54-15.294,17.618-22.013,27.182l47.597,45.438
	c6.246-9.943,13.379-19.269,21.293-27.869L68.451,81.847z"/>
<path style="fill:#EF7B7B;" d="M56.911,119.027c5.621-10.388,11.977-20.421,19.048-30.011l-7.506-7.166
	c-8.182,8.805-15.313,17.682-22.014,27.18L56.911,119.027z"/>
<path style="fill:#F48C8C;" d="M27.495,140.587c-5.591,11.048-10.404,22.555-14.368,34.452l53.982,51.533
	c2.059-13.327,5.504-26.194,10.167-38.462L27.495,140.587z"/>
<path style="fill:#EF7B7B;" d="M13.189,175.097l17.566,16.769c2.54-12.944,6.067-25.681,10.56-38.087l-13.794-13.168
	C21.902,151.763,17.116,163.291,13.189,175.097z"/>
<path style="fill:#F48C8C;" d="M65.598,272.936L3.546,213.699c-2.483,14.929-3.627,29.727-3.47,44.923l83.289,79.51
	C73.806,318.079,67.632,296.102,65.598,272.936z"/>
<path style="fill:#EF7B7B;" d="M3.567,213.72c-2.518,14.988-3.648,29.797-3.492,44.902l30.056,28.692
	c-3.185-17.331-4.533-34.81-4.117-52.165L3.567,213.72z"/>
<path style="fill:#F48C8C;" d="M58.952,419.351l29.899-24.786L7.305,316.719C16.627,355.026,34.561,389.962,58.952,419.351z"/>
<path style="fill:#EF7B7B;" d="M58.952,419.351c8.559-7.095,14.578-12.085,22.735-18.847c-9.105-11.462-16.75-23.051-23.515-35.226
	L7.313,316.727C16.426,354.145,34.222,389.553,58.952,419.351z"/>
<path style="fill:#92B620;" d="M449.864,88.877l-49.086,42.315c28.895,33.488,46.371,77.105,46.371,124.807h64.808
	C511.957,192.125,488.556,133.719,449.864,88.877L449.864,88.877z"/>
<g>
</g>
<g>
</g>
<g>
</g>
<g>
</g>
<g>
</g>
<g>
</g>
<g>
</g>
<g>
</g>
<g>
</g>
<g>
</g>
<g>
</g>
<g>
</g>
<g>
</g>
<g>
</g>
<g>
</g>
</svg>
