<?xml version="1.0" encoding="iso-8859-1"?>
<!-- Generator: Adobe Illustrator 19.0.0, SVG Export Plug-In . SVG Version: 6.00 Build 0)  -->
<svg version="1.1" id="Capa_1" xmlns="http://www.w3.org/2000/svg" xmlns:xlink="http://www.w3.org/1999/xlink" x="0px" y="0px"
	 viewBox="0 0 512 512" style="enable-background:new 0 0 512 512;" xml:space="preserve">
<path style="fill:#F94A46;" d="M473.945,116.715h-98.932c-5.581,0-10.146,4.566-10.146,10.146c0,4.322,0,69.457,0,65.564
	c0,6.351,5.149,11.5,11.5,11.5c91.745,0,85.379-0.618,88.016,1.869l14.539,13.723c1.955,1.845,5.17,0.46,5.17-2.23
	c0-8.334,0-95.956,0-90.426C484.091,121.281,479.526,116.715,473.945,116.715z"/>
<path style="fill:#FFB70D;" d="M37.443,116.715h98.932c5.581,0,10.146,4.566,10.146,10.146c0,4.322,0,69.457,0,65.564
	c0,6.351-5.149,11.5-11.5,11.5c-88.984,0-85.092-0.89-88.016,1.869l-14.539,13.723c-1.955,1.845-5.17,0.46-5.17-2.23
	c0-8.334,0-95.956,0-90.426C27.297,121.281,31.862,116.715,37.443,116.715z"/>
<path style="fill:#70B5E8;" d="M317.655,0H193.734c-8.925,0-16.228,7.303-16.228,16.228v84.257c0,8.926,7.303,16.229,16.228,16.229
	h44.643l12.607,18.235c2.566,3.71,6.762,3.71,9.328,0l12.607-18.235h44.738c8.925,0,16.229-7.303,16.229-16.229V16.228
	C333.884,7.303,326.581,0,317.655,0z"/>
<g>
	<path style="fill:#ED3E3E;" d="M395.645,192.426c0-24.628,0-41.107,0-65.564c0-5.581,4.566-10.146,10.146-10.146h-30.778
		c-5.58,0-10.146,4.566-10.146,10.146c0,14.549,0,54.028,0,65.564c0,6.351,5.149,11.5,11.5,11.5c7.922,0,22.885,0,30.778,0
		C400.794,203.924,395.645,198.776,395.645,192.426z"/>
	<path style="fill:#ED3E3E;" d="M459.678,203.924c4.614,0,5.286,3.152,19.242,15.592c1.955,1.845,5.17,0.46,5.17-2.23v-13.362
		H459.678z"/>
</g>
<path style="fill:#F2A306;" d="M58.075,126.861c0-5.581,4.566-10.146,10.146-10.146H37.443c-5.581,0-10.146,4.566-10.146,10.146
	c0,10.875,0,79.995,0,90.426c0,2.688,3.215,4.075,5.17,2.23c13.962-12.444,14.627-15.592,19.242-15.592h6.365
	C58.075,179.478,58.075,151.196,58.075,126.861z"/>
<g>
	<path style="fill:#52A5D8;" d="M208.283,100.487V16.228C208.283,7.303,215.585,0,224.511,0h-30.778
		c-8.925,0-16.229,7.303-16.229,16.228v84.257c0,8.926,7.303,16.229,16.229,16.229h30.778
		C215.585,116.715,208.283,109.412,208.283,100.487z"/>
	<path style="fill:#52A5D8;" d="M269.154,116.715h-30.778l12.607,18.235c2.566,3.71,6.762,3.71,9.328,0l10.725-15.514
		L269.154,116.715z"/>
</g>
<g>
	<path style="fill:#F48C8C;" d="M386.451,164.962c-2.342-3.464-1.493-8.25,2.134-10.723c4.605-3.038,10.748-0.514,11.878,4.928
		C401.752,166.017,391.019,172.065,386.451,164.962z"/>
	<path style="fill:#F48C8C;" d="M455.602,168.408h-33.168c-4.271,0-7.733-3.462-7.733-7.734c0-4.271,3.463-7.734,7.733-7.734h33.168
		c4.271,0,7.734,3.462,7.734,7.734S459.873,168.408,455.602,168.408z"/>
</g>
<g>
	<path style="fill:#F9D07D;" d="M48.291,164.962c-1.978-2.925-1.714-7.07,0.97-9.754c4.683-4.818,13.197-1.513,13.197,5.465
		C62.457,167.702,52.501,171.274,48.291,164.962z"/>
	<path style="fill:#F9D07D;" d="M117.449,168.408H84.281c-4.271,0-7.734-3.462-7.734-7.734c0-4.271,3.463-7.734,7.734-7.734h33.168
		c4.271,0,7.734,3.462,7.734,7.734C125.182,164.946,121.719,168.408,117.449,168.408z"/>
</g>
<g>
	<path style="fill:#9FD3F4;" d="M271.629,86.978h-60.662c-4.271,0-7.734-3.462-7.734-7.734c0-4.272,3.463-7.734,7.734-7.734h60.662
		c4.271,0,7.734,3.462,7.734,7.734C279.363,83.516,275.9,86.978,271.629,86.978z"/>
	<path style="fill:#9FD3F4;" d="M302.733,86.978h-0.171c-4.271,0-7.733-3.462-7.733-7.734c0-4.272,3.463-7.734,7.733-7.734h0.171
		c4.271,0,7.733,3.462,7.733,7.734C310.467,83.516,307.004,86.978,302.733,86.978z"/>
	<path style="fill:#9FD3F4;" d="M302.733,49.86h-60.662c-4.271,0-7.734-3.462-7.734-7.734s3.463-7.734,7.734-7.734h60.662
		c4.271,0,7.733,3.462,7.733,7.734S307.004,49.86,302.733,49.86z"/>
	<path style="fill:#9FD3F4;" d="M211.139,49.86h-0.171c-4.271,0-7.734-3.462-7.734-7.734s3.463-7.734,7.734-7.734h0.171
		c4.271,0,7.734,3.462,7.734,7.734S215.41,49.86,211.139,49.86z"/>
</g>
<path style="fill:#93482B;" d="M487.821,318.338c-3.98-78.528-115.6-90.739-136.516-14.96c-1.153,4.191-1.905,8.103-2.284,12.965
	c-0.244,3.079-0.272,18.81-0.258,28.26h139.16C487.928,320.094,487.924,320.405,487.821,318.338z"/>
<path style="fill:#873921;" d="M401.201,303.378c6.72-24.344,22.804-39.593,41.669-46.494
	c-43.745-15.626-90.111,11.496-93.849,59.459c-0.244,3.079-0.272,18.81-0.258,28.26h49.896
	C398.621,317.758,398.445,313.396,401.201,303.378z"/>
<path style="fill:#EFEFEF;" d="M491.486,511.963c12.181,0,21.462-10.913,19.506-22.937l-4.877-29.969
	c-1.399-7.076-2.197-18.844-15.751-24.54c-1.266-0.53-4.146-1.326-4.088-1.308c-59.441-20.998-4.736-1.674-31.028-10.929
	l-13.168-8.153v-15.673c-14.128,7.113-31.47,7.66-45.907,0.989l0.009,14.683l-13.54,8.295l-6.977,2.399h-0.015l0.002,0.005
	c-0.106,0.037-28.673,10.154-26.786,9.308c-7.501,2.801-13.844,8.967-14.731,17.598c-0.388,3.767-5.28,31.18-8.255,47.698
	c-1.177,6.534,3.845,12.536,10.485,12.536L491.486,511.963L491.486,511.963z"/>
<path style="fill:#EAB883;" d="M418.342,435.709l26.737-19.726l0,0l-2.999-1.857v-15.672c-14.128,7.113-31.47,7.66-45.907,0.989
	l0.009,14.683l-3.031,1.857L418.342,435.709z"/>
<path style="fill:#E0A773;" d="M418.481,404.109c-7.654,0.084-15.32-1.437-22.307-4.665l0.009,14.683l-3.031,1.857l24.762,19.39
	h0.567V404.109z"/>
<g>
	<path style="fill:#DDDDDD;" d="M396.183,414.126l22.16,21.583l-19.78,13.765c-2.886,2.009-6.893,0.663-7.982-2.68l-7.938-24.372
		L396.183,414.126z"/>
	<path style="fill:#DDDDDD;" d="M442.08,414.126l-23.738,21.583l19.78,13.765c2.886,2.009,6.893,0.663,7.982-2.68l9.145-24.514
		L442.08,414.126z"/>
</g>
<path style="fill:#EF3C3C;" d="M427.256,466.208c-6.235,0-11.593,0-17.828,0L397.197,512c14.796,0,27.496,0,42.292,0
	L427.256,466.208z"/>
<path style="fill:#F94A46;" d="M418.342,435.709l-16.606,11.557l7.692,18.944c6.235,0,11.593,0,17.828,0l7.692-18.944
	L418.342,435.709z"/>
<path style="fill:#DD2F2F;" d="M427.256,466.208c-6.235,0-11.593,0-17.828,0L397.197,512h17.836l12.228-45.778L427.256,466.208z"/>
<path style="fill:#ED3E3E;" d="M415.642,437.587l-13.906,9.678l7.692,18.944c6.235,0,11.593,0,17.828,0l0.004-0.009L415.642,437.587
	z"/>
<g>
	<path style="fill:#EAB883;" d="M369.659,336.51c-12.078-4.304-26.107,3.7-26.107,15.378c0,11.675,14.026,19.683,26.107,15.378
		V336.51z"/>
	<path style="fill:#EAB883;" d="M467.049,336.51c12.078-4.304,26.107,3.7,26.107,15.378c0,11.675-14.026,19.683-26.107,15.378
		V336.51z"/>
</g>
<g>
	<path style="fill:#E0A773;" d="M345.352,344.935c-7.418,13.547,8.831,27.847,24.307,22.331V353.36
		C360.183,356.737,349.514,352.538,345.352,344.935z"/>
	<path style="fill:#E0A773;" d="M467.049,353.361v13.907c15.475,5.515,31.725-8.784,24.307-22.331
		C487.194,352.538,476.524,356.737,467.049,353.361z"/>
</g>
<path style="fill:#F7CF9C;" d="M466.599,318.315c1.289,0.125,2.28,1.194,2.28,2.488c0,42.54,0.028,36.32-0.072,38.298
	c-2.891,57.039-83.966,65.907-99.158,10.865c-0.837-3.044-1.384-5.885-1.658-9.418c-0.283-3.573-0.165-22.966-0.165-22.904
	c0-9.906,8.792-17.465,18.597-16.049c15.443,2.229,37.984,1.363,57.652-15.449c2.021-1.727,5.088-1.17,6.379,1.155
	C452.892,311.689,457.737,317.459,466.599,318.315z"/>
<path style="fill:#EAB883;" d="M398.809,359.101c-0.098-1.951-0.072,4.072-0.072-36.617c-4.425,0.005-8.579-0.35-12.314-0.889
	c-9.805-1.416-18.597,6.143-18.597,16.049c0-0.062-0.118,19.331,0.165,22.904c2.613,33.534,34.184,53.633,65.817,43.96
	C415.393,398.879,400.038,383.345,398.809,359.101z"/>
<path style="fill:#DDDDDD;" d="M480.697,493.13c0-4.271-3.463-7.733-7.734-7.733c-4.271,0-7.733,3.462-7.733,7.733v18.833h15.466
	V493.13H480.697z"/>
<path style="fill:#93482B;" d="M160.756,318.338c-3.98-78.528-115.6-90.739-136.516-14.96c-3.059,11.122-2.576,17.23-2.542,41.226
	h139.16C160.862,320.094,160.859,320.405,160.756,318.338z"/>
<path style="fill:#873921;" d="M74.135,303.378c6.719-24.344,22.804-39.593,41.669-46.494
	c-43.745-15.626-90.111,11.496-93.849,59.459c-0.244,3.079-0.272,18.81-0.258,28.26h49.896
	C71.556,317.758,71.381,313.396,74.135,303.378z"/>
<path style="fill:#EFEFEF;" d="M164.421,511.963c12.181,0,21.462-10.913,19.506-22.937l-4.877-29.969
	c-1.399-7.076-2.197-18.844-15.751-24.54c-1.266-0.53-4.146-1.326-4.088-1.308c-59.441-20.998-4.736-1.674-31.028-10.929
	l-13.168-8.153v-15.673c-14.128,7.113-31.47,7.66-45.907,0.989l0.009,14.683l-13.54,8.295l-6.977,2.399h-0.015l0.002,0.005
	c-0.106,0.037-28.673,10.154-26.786,9.308C14.3,436.934,7.958,443.1,7.07,451.73c-0.299,2.904-3.274,19.855-5.984,35.037
	c-2.346,13.136,7.754,25.196,21.098,25.196L164.421,511.963z"/>
<path style="fill:#DDDDDD;" d="M18.35,486.767c0,0,5.685-38.32,5.984-41.224c0.777-7.563,5.677-13.198,12.058-16.413
	c-14.893,5.235-14.689,5.045-14.59,5.001c-7.502,2.801-13.844,8.965-14.731,17.598c-0.299,2.904-3.274,19.855-5.984,35.037
	c-2.345,13.136,7.754,25.196,21.098,25.196h17.262C26.103,511.963,16.004,499.903,18.35,486.767z"/>
<path style="fill:#EAB883;" d="M91.277,435.709l26.737-19.726l0,0l-2.999-1.857v-15.672c-14.128,7.113-31.47,7.66-45.907,0.989
	l0.009,14.683l-3.031,1.857L91.277,435.709z"/>
<path style="fill:#E0A773;" d="M91.416,404.109c-7.654,0.084-15.32-1.437-22.307-4.665l0.009,14.683l-3.031,1.857l24.762,19.39
	h0.567C91.416,435.373,91.416,404.109,91.416,404.109z"/>
<g>
	<path style="fill:#DDDDDD;" d="M69.117,414.126l22.16,21.583l-19.78,13.765c-2.886,2.009-6.893,0.663-7.982-2.68l-7.938-24.372
		L69.117,414.126z"/>
	<path style="fill:#DDDDDD;" d="M115.015,414.126l-23.738,21.583l19.78,13.765c2.886,2.009,6.893,0.663,7.982-2.68l9.145-24.514
		L115.015,414.126z"/>
</g>
<path style="fill:#EF3C3C;" d="M100.191,466.208c-6.235,0-11.593,0-17.828,0L70.131,512c14.796,0,27.496,0,42.292,0L100.191,466.208
	z"/>
<path style="fill:#F94A46;" d="M91.277,435.709l-16.606,11.557l7.692,18.944c6.235,0,11.593,0,17.828,0l7.692-18.944L91.277,435.709
	z"/>
<path style="fill:#DD2F2F;" d="M100.191,466.208c-6.235,0-11.593,0-17.828,0L70.131,512h17.836l12.228-45.778L100.191,466.208z"/>
<path style="fill:#ED3E3E;" d="M88.578,437.587l-13.906,9.678l7.692,18.944c6.235,0,11.593,0,17.828,0l0.004-0.009L88.578,437.587z"
	/>
<g>
	<path style="fill:#EAB883;" d="M42.594,336.51c-12.078-4.304-26.107,3.7-26.107,15.378c0,11.675,14.026,19.683,26.107,15.378
		V336.51z"/>
	<path style="fill:#EAB883;" d="M139.984,336.51c12.078-4.304,26.107,3.7,26.107,15.378c0,11.675-14.026,19.683-26.107,15.378
		V336.51z"/>
</g>
<g>
	<path style="fill:#E0A773;" d="M18.287,344.935c-7.418,13.547,8.831,27.847,24.307,22.331V353.36
		C33.119,356.737,22.449,352.538,18.287,344.935z"/>
	<path style="fill:#E0A773;" d="M139.984,353.361v13.907c15.475,5.515,31.725-8.784,24.307-22.331
		C160.129,352.538,149.46,356.737,139.984,353.361z"/>
</g>
<path style="fill:#F7CF9C;" d="M139.534,318.315c1.289,0.125,2.28,1.194,2.28,2.488c0,42.54,0.028,36.32-0.072,38.298
	c-2.891,57.039-83.966,65.907-99.157,10.865c-0.837-3.044-1.384-5.885-1.658-9.418c-0.283-3.573-0.165-22.966-0.165-22.904
	c0-9.906,8.792-17.465,18.597-16.049c15.443,2.229,37.984,1.363,57.652-15.449c2.021-1.727,5.088-1.17,6.379,1.155
	C125.826,311.689,130.673,317.459,139.534,318.315z"/>
<path style="fill:#EAB883;" d="M71.744,359.101c-0.098-1.951-0.072,4.072-0.072-36.617c-4.425,0.005-8.579-0.35-12.314-0.889
	c-9.806-1.416-18.597,6.143-18.597,16.049c0-0.062-0.118,19.331,0.165,22.904c2.613,33.534,34.184,53.633,65.817,43.96
	C88.328,398.879,72.973,383.345,71.744,359.101z"/>
<path style="fill:#DDDDDD;" d="M45.455,511.963V493.13c0-4.271-3.463-7.733-7.734-7.733s-7.734,3.462-7.734,7.733v18.833H45.455z"/>
<path style="fill:#93482B;" d="M341.735,268.09c-5.004-98.732-145.342-114.084-171.639-18.808
	c-3.845,13.983-3.238,21.664-3.196,51.833h174.964C341.87,270.299,341.866,270.69,341.735,268.09z"/>
<path style="fill:#873921;" d="M224.969,249.283c8.903-32.26,30.887-51.82,56.258-59.772c-43.134-13.228-96.003,4.96-111.131,59.772
	c-3.845,13.983-3.238,21.664-3.196,51.833h54.873C221.726,267.363,221.506,261.878,224.969,249.283z"/>
<path style="fill:#EFEFEF;" d="M356.937,511.533c9.763,0,17.201-8.747,15.633-18.383l-7.833-48.134
	c-1.758-8.897-2.762-23.692-19.803-30.855c-1.658-0.696-5.024-1.603-5.18-1.658c-40.384-14.265-38.818-13.634-39.073-13.792
	l-15.927-9.861c-0.328-0.203-0.526-0.56-0.526-0.946v-17.31c0-0.82-0.852-1.347-1.594-0.998c-16.95,7.959-37.278,8.575-54.562,1.163
	c-0.739-0.317-1.56,0.209-1.559,1.013c0.011,17.555,0.225,16.621-0.521,17.078c-17.581,10.771-16.428,10.081-16.607,10.143
	l-8.657,2.976h-0.02l0.003,0.006c-0.113,0.039-35.991,12.742-33.677,11.703c-9.431,3.522-17.405,11.275-18.52,22.126
	c-0.456,4.43-5.862,34.847-9.622,55.758c-1.871,10.409,6.13,19.973,16.706,19.973L356.937,511.533z"/>
<path style="fill:#DDDDDD;" d="M158.423,491.561c0,0,9.166-58.546,9.622-62.976c0.911-8.868,6.305-15.745,13.941-20.007
	c-15.296,5.36-15.07,5.15-14.955,5.098c-9.431,3.522-17.405,11.275-18.52,22.126c-0.456,4.43-5.862,34.847-9.622,55.758
	c-1.871,10.409,6.13,19.973,16.706,19.973h19.533C164.553,511.533,156.552,501.97,158.423,491.561z"/>
<path style="fill:#EAB883;" d="M254.382,415.659l33.616-24.801l0,0l-3.77-2.335V368.82c-17.764,8.943-39.567,9.63-57.718,1.244
	l0.012,18.46l-3.811,2.335L254.382,415.659z"/>
<path style="fill:#E0A773;" d="M254.381,415.659v-39.708c-9.565,0.074-19.14-1.855-27.872-5.889l0.012,18.46l-3.811,2.335
	L254.381,415.659z"/>
<g>
	<path style="fill:#DDDDDD;" d="M226.521,388.524l27.86,27.136l-24.868,17.307c-3.629,2.526-8.667,0.834-10.036-3.37l-9.98-30.643
		L226.521,388.524z"/>
	<path style="fill:#DDDDDD;" d="M284.227,388.524l-29.846,27.136l24.868,17.307c3.629,2.526,8.667,0.834,10.035-3.37l11.498-30.822
		L284.227,388.524z"/>
</g>
<path style="fill:#EF3C3C;" d="M265.603,453.971l-22.464-0.053l-15.344,57.66c16.918,0,36.256,0,53.173,0L265.603,453.971z"/>
<polygon style="fill:#DD2F2F;" points="265.603,453.971 243.139,453.918 227.795,511.579 250.995,511.579 265.845,454.878 "/>
<g>
	<path style="fill:#EAB883;" d="M193.173,290.939c-15.185-5.412-32.823,4.652-32.823,19.335c0,14.679,17.636,24.747,32.823,19.335
		V290.939z"/>
	<path style="fill:#EAB883;" d="M315.62,290.939c15.185-5.412,32.823,4.652,32.823,19.335c0,14.679-17.636,24.747-32.823,19.335
		V290.939z"/>
</g>
<g>
	<path style="fill:#E0A773;" d="M162.882,301.065c-9.964,17.058,10.576,35.57,30.292,28.543v-18.416
		C181.457,315.369,168.291,310.326,162.882,301.065z"/>
	<path style="fill:#E0A773;" d="M315.62,311.194v18.416c19.715,7.025,40.256-11.484,30.292-28.543
		C340.502,310.326,327.337,315.369,315.62,311.194z"/>
</g>
<path id="SVGCleanerId_0" style="fill:#F7CF9C;" d="M315.054,268.062c1.62,0.157,2.866,1.501,2.866,3.128
	c0,53.485,0.035,45.665-0.09,48.151c-3.634,71.714-105.569,82.865-124.669,13.661c-1.052-3.827-1.739-7.4-2.086-11.841
	c-0.356-4.492-0.208-28.875-0.208-28.796c0-12.456,11.054-21.959,23.382-20.179c19.416,2.802,47.757,1.714,72.486-19.424
	c2.542-2.172,6.398-1.471,8.02,1.453C297.82,259.732,303.913,266.986,315.054,268.062z"/>
<g>
	<path id="SVGCleanerId_0_1_" style="fill:#F7CF9C;" d="M315.054,268.062c1.62,0.157,2.866,1.501,2.866,3.128
		c0,53.485,0.035,45.665-0.09,48.151c-3.634,71.714-105.569,82.865-124.669,13.661c-1.052-3.827-1.739-7.4-2.086-11.841
		c-0.356-4.492-0.208-28.875-0.208-28.796c0-12.456,11.054-21.959,23.382-20.179c19.416,2.802,47.757,1.714,72.486-19.424
		c2.542-2.172,6.398-1.471,8.02,1.453C297.82,259.732,303.913,266.986,315.054,268.062z"/>
</g>
<path style="fill:#EAB883;" d="M221.864,319.342c-0.123-2.459-0.091,5.145-0.09-46.331c-2.626-0.197-5.143-0.481-7.525-0.824
	c-12.328-1.779-23.382,7.724-23.382,20.179c0-0.078-0.148,24.304,0.208,28.796c3.073,39.428,38.927,65.931,78.772,56.355
	C244.965,371.537,223.497,351.553,221.864,319.342z"/>
<path style="fill:#F94A46;" d="M254.382,415.659l-20.878,14.53l9.671,23.817c7.839,0,14.575,0,22.414,0l9.671-23.817
	L254.382,415.659z"/>
<path style="fill:#ED3E3E;" d="M251.002,418.012l-17.498,12.177l9.671,23.817c7.839,0,14.575,0,22.414,0l0.014-0.035
	L251.002,418.012z"/>
<g>
	<path style="fill:#DDDDDD;" d="M178.979,481.499c-4.271,0-7.734,3.462-7.734,7.734v22.301h15.466v-22.301
		C186.712,484.961,183.25,481.499,178.979,481.499z"/>
	<path style="fill:#DDDDDD;" d="M329.784,481.499c-4.271,0-7.733,3.462-7.733,7.734v22.301h15.466v-22.301
		C337.516,484.961,334.054,481.499,329.784,481.499z"/>
</g>
<g>
</g>
<g>
</g>
<g>
</g>
<g>
</g>
<g>
</g>
<g>
</g>
<g>
</g>
<g>
</g>
<g>
</g>
<g>
</g>
<g>
</g>
<g>
</g>
<g>
</g>
<g>
</g>
<g>
</g>
</svg>
