<?xml version="1.0" encoding="iso-8859-1"?>
<!-- Generator: Adobe Illustrator 19.0.0, SVG Export Plug-In . SVG Version: 6.00 Build 0)  -->
<svg version="1.1" id="Capa_1" xmlns="http://www.w3.org/2000/svg" xmlns:xlink="http://www.w3.org/1999/xlink" x="0px" y="0px"
	 viewBox="0 0 511.999 511.999" style="enable-background:new 0 0 511.999 511.999;" xml:space="preserve">
<path style="fill:#FFB70D;" d="M141.784,221.194c0,8.021,0,284.478,0,276.459c0,11.309,12.478,18.15,22.023,12.084
	c0.103-0.066,83.835-51.094,78.51-47.848c8.405-5.122,18.968-5.118,27.368,0.013l77.518,47.348
	c9.91,6.226,22.793-0.915,22.793-12.619c0-4.335,0-270.79,0-275.126C312.973,298.099,198.664,298.026,141.784,221.194z"/>
<path style="fill:#F2A306;" d="M186.855,260.889c-17.693-9.905-33.066-23.48-45.071-39.695c0,4.974,0,273.139,0,276.459
	c0,11.309,12.478,18.15,22.023,12.084c0.293-0.186-1.644,0.949,23.048-14.045C186.855,484.835,186.855,279.045,186.855,260.889z"/>
<path style="fill:#F9D07D;" d="M172.945,252.003V504.17l27.82-16.956V267.7C200.041,267.326,187.318,262.401,172.945,252.003z"/>
<path style="fill:#F2C475;" d="M186.855,495.693c0-10.858,0-216.647,0-234.803c-4.831-2.707-9.688-5.83-13.91-8.886V504.17
	L186.855,495.693z"/>
<path style="fill:#F9D07D;" d="M311.014,487.147l27.82,16.992V252.171c-8.466,6.099-17.778,11.391-27.82,15.626V487.147z"/>
<path style="fill:#F48C8C;" d="M327.023,265.021c-67.828,39.161-154.87,15.838-194.03-51.99
	c-39.16-67.827-15.837-154.869,51.991-194.029c67.827-39.16,154.869-15.837,194.029,51.99
	C418.174,138.82,394.851,225.861,327.023,265.021z"/>
<path style="fill:#EF7B7B;" d="M157.087,199.121c-36.814-63.763-18.404-144.502,40.285-186.484
	c-76.702,34.83-106.105,128.121-64.378,200.394c41.773,72.353,137.289,93.407,205.736,44.445
	C273.028,287.311,193.901,262.885,157.087,199.121z"/>
<path style="fill:#F94A46;" d="M198.894,43.094c-54.543,31.491-73.298,101.484-41.808,156.027
	c31.491,54.543,101.484,73.298,156.027,41.807c54.543-31.49,73.297-101.484,41.807-156.027
	C323.43,30.359,253.437,11.604,198.894,43.094z"/>
<path style="fill:#ED3E3E;" d="M183.856,183.666c-28.869-50.003-15.503-112.987,28.948-147.39c-4.722,1.933-9.37,4.198-13.909,6.819
	c-54.543,31.491-73.298,101.484-41.808,156.027c34.374,59.537,113.904,75.726,168.887,33.171
	C273.954,253.586,212.726,233.67,183.856,183.666z"/>
<path style="fill:#EFEFEF;" d="M261.591,63.681l19.645,39.806c0.907,1.839,2.662,3.113,4.691,3.408l43.928,6.383
	c5.11,0.743,7.151,7.022,3.453,10.627l-31.787,30.984c-1.468,1.431-2.138,3.493-1.792,5.515l7.504,43.751
	c0.873,5.09-4.469,8.971-9.04,6.568l-39.29-20.656c-1.815-0.954-3.983-0.954-5.798,0l-39.29,20.656
	c-4.571,2.403-9.913-1.478-9.04-6.568l7.504-43.751c0.347-2.021-0.323-4.083-1.792-5.515L178.7,123.905
	c-3.698-3.604-1.657-9.884,3.453-10.627l43.928-6.383c2.029-0.295,3.784-1.569,4.691-3.408l19.645-39.806
	C252.703,59.05,259.306,59.05,261.591,63.681z"/>
<path style="fill:#DDDDDD;" d="M242.862,151.817c0.347-2.021-0.324-4.083-1.792-5.515l-31.787-30.984
	c-1.661-1.619-2.156-3.775-1.744-5.729l-25.387,3.689c-5.11,0.743-7.151,7.022-3.453,10.627l31.787,30.984
	c1.468,1.431,2.138,3.493,1.792,5.515l-7.504,43.751c-0.873,5.09,4.469,8.971,9.04,6.568l21.988-11.56
	C234.408,196.064,235.456,197.295,242.862,151.817z"/>
<g>
</g>
<g>
</g>
<g>
</g>
<g>
</g>
<g>
</g>
<g>
</g>
<g>
</g>
<g>
</g>
<g>
</g>
<g>
</g>
<g>
</g>
<g>
</g>
<g>
</g>
<g>
</g>
<g>
</g>
</svg>
