<?xml version="1.0" encoding="iso-8859-1"?>
<!-- Generator: Adobe Illustrator 19.0.0, SVG Export Plug-In . SVG Version: 6.00 Build 0)  -->
<svg version="1.1" id="Capa_1" xmlns="http://www.w3.org/2000/svg" xmlns:xlink="http://www.w3.org/1999/xlink" x="0px" y="0px"
	 viewBox="0 0 512 512" style="enable-background:new 0 0 512 512;" xml:space="preserve">
<g>
	<path style="fill:#EFEFEF;" d="M217.004,396.445h-5.173c-4.204,0-7.612-3.408-7.612-7.612s3.408-7.612,7.612-7.612h5.173
		c2.476,0,4.567-2.091,4.567-4.567v-40.746c0-4.204,3.408-7.612,7.612-7.612s7.612,3.408,7.612,7.612v40.746
		C236.795,387.566,227.917,396.445,217.004,396.445z"/>
	<path style="fill:#EFEFEF;" d="M130.975,396.445h-4.109c-10.913,0-19.791-8.879-19.791-19.791v-75.915
		c0-4.204,3.408-7.612,7.612-7.612s7.612,3.408,7.612,7.612v75.915c0,2.476,2.091,4.567,4.567,4.567h4.109
		c4.204,0,7.612,3.408,7.612,7.612S135.179,396.445,130.975,396.445z"/>
</g>
<path style="fill:#F94A46;" d="M26.334,209.232c0,10.604,0,81.815,0,93.535l89.368,3.045c0-12.107,0-88.863,0-99.625L26.334,209.232
	z"/>
<path style="fill:#ED3E3E;" d="M58.078,208.151l-31.744,1.082c0,10.604,0,81.815,0,93.535l31.744,1.082V208.151z"/>
<path style="fill:#EFEFEF;" d="M26.334,238.927c0,11.713,0,21.195,0,34.145l89.368,1.112c0-21.803,0-30.423,0-36.368L26.334,238.927
	z"/>
<path style="fill:#DDDDDD;" d="M58.078,238.533l-31.744,0.395c0,11.713,0,21.195,0,34.145l31.744,0.395V238.533z"/>
<path style="fill:#666666;" d="M13.702,196.155C6.134,196.155,0,202.289,0,209.856v92.288c0,7.567,6.134,13.701,13.702,13.701
	c7.567,0,13.702-6.134,13.702-13.701v-92.288C27.403,202.289,21.269,196.155,13.702,196.155z"/>
<path style="fill:#535454;" d="M13.702,256C6.134,256,0,249.866,0,242.299v59.845c0,7.567,6.134,13.701,13.702,13.701
	c7.567,0,13.702-6.134,13.702-13.701v-59.845C27.403,249.866,21.269,256,13.702,256z"/>
<path style="fill:#70B5E8;" d="M114.687,206.188c0,12.112,0,87.484,0,99.625l271.284,83.021c0-7.493,0-258.172,0-265.666
	L114.687,206.188z"/>
<path style="fill:#CCCCCC;" d="M198.13,402.534h-53.453c-7.567,0-13.702-6.134-13.702-13.702c0-7.567,6.134-13.702,13.702-13.702
	h53.453c7.567,0,13.702,6.134,13.702,13.702C211.831,396.4,205.697,402.534,198.13,402.534z"/>
<path style="fill:#BCBBBB;" d="M171.605,388.833c0-7.567,6.134-13.702,13.702-13.702h-40.63c-7.567,0-13.702,6.134-13.702,13.702
	c0,7.567,6.134,13.702,13.702,13.702h40.63C177.739,402.534,171.605,396.4,171.605,388.833z"/>
<g>
	<path style="fill:#70B5E8;" d="M504.388,263.612h-35.9c-4.204,0-7.612-3.408-7.612-7.612c0-4.204,3.408-7.612,7.612-7.612h35.9
		c4.204,0,7.612,3.408,7.612,7.612C512,260.204,508.592,263.612,504.388,263.612z"/>
	<path style="fill:#70B5E8;" d="M445.318,191.113c-2.973-2.972-2.973-7.792,0-10.765l25.56-25.56c2.972-2.972,7.792-2.972,10.765,0
		c2.973,2.972,2.973,7.792,0,10.765l-25.56,25.56C453.11,194.086,448.29,194.086,445.318,191.113z"/>
	<path style="fill:#70B5E8;" d="M465.369,224.603c-3.251,0-6.261-2.099-7.27-5.367c-1.24-4.017,1.01-8.279,5.027-9.519
		l34.537-10.667c4.02-1.241,8.278,1.01,9.519,5.027c1.24,4.017-1.01,8.279-5.027,9.519l-34.537,10.667
		C466.87,224.493,466.113,224.603,465.369,224.603z"/>
	<path style="fill:#70B5E8;" d="M499.911,313.169c-0.744,0-1.501-0.11-2.249-0.341l-34.537-10.667
		c-4.017-1.241-6.267-5.503-5.027-9.519c1.24-4.018,5.502-6.267,9.519-5.027l34.537,10.667c4.017,1.241,6.267,5.503,5.027,9.519
		C506.172,311.07,503.161,313.169,499.911,313.169z"/>
	<path style="fill:#70B5E8;" d="M476.26,359.44c-1.948,0-3.896-0.743-5.382-2.229l-25.56-25.56c-2.973-2.973-2.973-7.792,0-10.766
		c2.972-2.971,7.792-2.971,10.765,0l25.56,25.56c2.973,2.973,2.973,7.792,0,10.766C480.156,358.697,478.208,359.44,476.26,359.44z"
		/>
</g>
<path style="fill:#666666;" d="M440.916,256c0-15.772-13.801-28.557-29.572-28.557v57.114
	C427.115,284.557,440.916,271.772,440.916,256z"/>
<path style="fill:#535454;" d="M411.344,260.199v24.358c20.859,0,36.294-21.564,26.657-40.736
	C433.136,253.5,422.758,260.199,411.344,260.199z"/>
<path style="fill:#EFEFEF;" d="M412.359,118.851v274.298c0,7.567-6.134,13.702-13.702,13.702l0,0
	c-7.567,0-13.702-6.134-13.702-13.702V118.851c0-7.567,6.134-13.702,13.702-13.702l0,0
	C406.224,105.149,412.359,111.284,412.359,118.851z"/>
<path style="fill:#DDDDDD;" d="M398.657,347.146c-7.567,0-13.702-6.134-13.702-13.702v59.704c0,7.567,6.134,13.702,13.702,13.702
	c7.567,0,13.702-6.134,13.702-13.702v-59.704C412.359,341.012,406.224,347.146,398.657,347.146z"/>
<path style="fill:#52A5D8;" d="M184.829,256c0-29.167,8.977-56.275,24.305-78.715l-94.447,28.903c0,27.003,0,83.727,0,99.625
	l94.447,28.903C193.806,312.275,184.829,285.167,184.829,256z"/>
<g>
</g>
<g>
</g>
<g>
</g>
<g>
</g>
<g>
</g>
<g>
</g>
<g>
</g>
<g>
</g>
<g>
</g>
<g>
</g>
<g>
</g>
<g>
</g>
<g>
</g>
<g>
</g>
<g>
</g>
</svg>
