<?xml version="1.0" encoding="iso-8859-1"?>
<!-- Generator: Adobe Illustrator 19.0.0, SVG Export Plug-In . SVG Version: 6.00 Build 0)  -->
<svg version="1.1" id="Capa_1" xmlns="http://www.w3.org/2000/svg" xmlns:xlink="http://www.w3.org/1999/xlink" x="0px" y="0px"
	 viewBox="0 0 512.001 512.001" style="enable-background:new 0 0 512.001 512.001;" xml:space="preserve">
<path style="fill:#666666;" d="M512,322.24V30.241c0-12.681-10.28-22.962-22.962-22.962H22.962C10.28,7.279,0,17.559,0,30.241
	v291.998L512,322.24L512,322.24z"/>
<path style="fill:#EFEFEF;" d="M483.797,91.889V43.311c0-4.316-3.512-7.828-7.828-7.828H36.032c-4.316,0-7.828,3.512-7.828,7.828
	V91.89l0,0v191.566c0,4.129,3.512,7.489,7.828,7.489h439.937c4.316,0,7.828-3.36,7.828-7.489L483.797,91.889L483.797,91.889z"/>
<path style="fill:#DDDDDD;" d="M61.192,283.456V91.889l0,0V43.311c0-4.316,3.512-7.828,7.828-7.828H36.031
	c-4.316,0-7.828,3.512-7.828,7.828V91.89l0,0v191.566c0,4.129,3.512,7.489,7.828,7.489H69.02
	C64.704,290.945,61.192,287.585,61.192,283.456z"/>
<path style="fill:#535454;" d="M51.165,7.279H22.961C10.28,7.279,0,17.559,0,30.241v291.998h28.203V30.241
	C28.203,17.559,38.484,7.279,51.165,7.279z"/>
<polygon style="fill:#CCCCCC;" points="314.724,477.548 197.276,477.548 202.198,401.826 309.802,401.826 "/>
<polygon style="fill:#BCBBBB;" points="202.198,401.826 197.276,477.548 228.183,477.548 233.105,401.826 "/>
<path style="fill:#EFEFEF;" d="M330.021,504.721H181.979c-7.788,0-14.102-6.314-14.102-14.102l0,0
	c0-7.788,6.314-14.102,14.102-14.102H330.02c7.788,0,14.102,6.314,14.102,14.102l0,0
	C344.122,498.408,337.809,504.721,330.021,504.721z"/>
<path style="fill:#DDDDDD;" d="M215.191,490.619c0-7.788,6.314-14.102,14.102-14.102H181.98c-7.788,0-14.102,6.314-14.102,14.102
	s6.314,14.102,14.102,14.102h47.313C221.504,504.721,215.191,498.408,215.191,490.619z"/>
<path style="fill:#EFEFEF;" d="M0,319.148v60.745c0,12.681,10.28,22.962,22.962,22.962h466.077c12.681,0,22.962-10.28,22.962-22.962
	v-60.745H0z"/>
<path style="fill:#DDDDDD;" d="M28.203,379.893v-60.746H0v60.746c0,12.681,10.28,22.962,22.962,22.962h28.203
	C38.484,402.855,28.203,392.576,28.203,379.893z"/>
<circle style="fill:#CCCCCC;" cx="253.17" cy="360.74" r="14.759"/>
<path style="fill:#BCBBBB;" d="M253.172,360.744c-2.73-4.728-2.534-10.333,0.007-14.747c-2.511-0.004-5.055,0.62-7.386,1.966
	c-7.059,4.076-9.478,13.102-5.402,20.161c4.076,7.059,13.102,9.478,20.161,5.402c2.331-1.346,4.143-3.237,5.396-5.414
	C260.854,368.105,255.902,365.472,253.172,360.744z"/>
<path style="fill:#F94A46;" d="M101.887,231.256H72.565c-5.114,0-9.259,4.146-9.259,9.26v21.348h47.84v-21.348
	C111.146,235.402,107.001,231.256,101.887,231.256z"/>
<circle style="fill:#F7CF9C;" cx="87.22" cy="193.97" r="15.486"/>
<path style="fill:#F48C8C;" d="M165.435,261.865h-30.144V85.077c0-2.795,2.266-5.06,5.06-5.06h20.358
	c2.61,0,4.726,2.116,4.726,4.726V261.865z"/>
<path style="fill:#70B5E8;" d="M242.507,231.256h-29.322c-5.114,0-9.259,4.146-9.259,9.26v21.348h47.84v-21.348
	C251.766,235.402,247.621,231.256,242.507,231.256z"/>
<circle style="fill:#F7CF9C;" cx="227.84" cy="193.97" r="15.486"/>
<path style="fill:#FFB70D;" d="M383.127,231.256h-29.322c-5.114,0-9.259,4.146-9.259,9.26v21.348h47.84v-21.348
	C392.386,235.402,388.241,231.256,383.127,231.256z"/>
<path style="fill:#EF3C3C;" d="M96.485,231.256h-23.92c-5.114,0-9.259,4.146-9.259,9.26v21.348h23.92v-21.348
	C87.226,235.402,91.371,231.256,96.485,231.256z"/>
<path style="fill:#52A5D8;" d="M237.105,231.256h-23.92c-5.114,0-9.259,4.146-9.259,9.26v21.348h23.92v-21.348
	C227.846,235.402,231.991,231.256,237.105,231.256z"/>
<path style="fill:#F2A306;" d="M377.725,231.256h-23.92c-5.114,0-9.259,4.146-9.259,9.26v21.348h23.92v-21.348
	C368.466,235.402,372.611,231.256,377.725,231.256z"/>
<circle style="fill:#F7CF9C;" cx="368.47" cy="193.97" r="15.486"/>
<g>
	<path style="fill:#EAB883;" d="M87.225,193.975c-2.864-4.961-2.659-10.842,0.007-15.475c-2.634-0.004-5.304,0.651-7.75,2.063
		c-7.407,4.277-9.945,13.748-5.668,21.155s13.748,9.945,21.155,5.669c2.446-1.412,4.347-3.397,5.661-5.68
		C95.285,201.699,90.089,198.937,87.225,193.975z"/>
	<path style="fill:#EAB883;" d="M227.845,193.975c-2.864-4.961-2.659-10.842,0.007-15.475c-2.634-0.004-5.304,0.651-7.75,2.063
		c-7.407,4.277-9.945,13.748-5.668,21.155c5.997,10.388,20.929,10.22,26.816-0.011C235.906,201.699,230.71,198.937,227.845,193.975z
		"/>
	<path style="fill:#EAB883;" d="M368.472,178.501c-2.634-0.004-5.304,0.651-7.75,2.063c-7.407,4.277-9.945,13.748-5.668,21.155
		s13.748,9.945,21.155,5.669c2.446-1.412,4.347-3.397,5.661-5.68C369.96,201.69,362.52,188.846,368.472,178.501z"/>
</g>
<path style="fill:#9FD3F4;" d="M306.056,261.865h-30.144V85.077c0-2.795,2.266-5.06,5.06-5.06h20.358
	c2.61,0,4.726,2.116,4.726,4.726V261.865z"/>
<path style="fill:#F9D07D;" d="M446.676,261.865h-30.144V85.077c0-2.795,2.266-5.06,5.06-5.06h20.358
	c2.61,0,4.726,2.116,4.726,4.726V261.865z"/>
<path style="fill:#EF7B7B;" d="M155.424,80.017h-15.072c-2.795,0-5.06,2.266-5.06,5.06v176.787h15.072V85.077
	C150.364,82.282,152.629,80.017,155.424,80.017z"/>
<path style="fill:#7AC8EA;" d="M296.044,80.017h-15.072c-2.795,0-5.06,2.266-5.06,5.06v176.787h15.072V85.077
	C290.984,82.282,293.249,80.017,296.044,80.017z"/>
<path style="fill:#EDBE6B;" d="M436.664,80.017h-15.072c-2.795,0-5.06,2.266-5.06,5.06v176.787h15.072V85.077
	C431.604,82.282,433.87,80.017,436.664,80.017z"/>
<rect x="135.29" y="135.02" style="fill:#F94A46;" width="30.14" height="126.84"/>
<rect x="135.29" y="135.02" style="fill:#EF3C3C;" width="15.07" height="126.84"/>
<rect x="275.91" y="193.97" style="fill:#70B5E8;" width="30.14" height="67.888"/>
<rect x="275.91" y="193.97" style="fill:#52A5D8;" width="15.07" height="67.889"/>
<rect x="416.53" y="160.93" style="fill:#FFB70D;" width="30.14" height="100.94"/>
<rect x="416.53" y="160.93" style="fill:#F2A306;" width="15.07" height="100.94"/>
<g>
	<path style="fill:#C9B89F;" d="M171.921,269.59H55.848c-4.267,0-7.727-3.459-7.727-7.727c0-4.268,3.459-7.727,7.727-7.727h116.073
		c4.267,0,7.727,3.459,7.727,7.727S176.189,269.59,171.921,269.59z"/>
	<path style="fill:#C9B89F;" d="M314.036,269.59H197.964c-4.267,0-7.727-3.459-7.727-7.727c0-4.268,3.459-7.727,7.727-7.727h116.073
		c4.267,0,7.727,3.459,7.727,7.727C321.763,266.132,318.304,269.59,314.036,269.59z"/>
	<path style="fill:#C9B89F;" d="M454.648,269.59H338.575c-4.267,0-7.727-3.459-7.727-7.727c0-4.268,3.459-7.727,7.727-7.727h116.073
		c4.267,0,7.727,3.459,7.727,7.727S458.915,269.59,454.648,269.59z"/>
</g>
<g>
</g>
<g>
</g>
<g>
</g>
<g>
</g>
<g>
</g>
<g>
</g>
<g>
</g>
<g>
</g>
<g>
</g>
<g>
</g>
<g>
</g>
<g>
</g>
<g>
</g>
<g>
</g>
<g>
</g>
</svg>
