<svg width="259" height="263" viewBox="0 0 259 263" fill="none" xmlns="http://www.w3.org/2000/svg">
<path d="M237.026 140.948H230.537C232.304 140.948 228.845 140.899 238.462 140.841C249.65 140.841 258.719 131.771 258.719 120.584C258.719 109.396 249.649 100.327 238.462 100.327H216.677C211.045 100.327 204.427 100.327 197.996 100.327C190.922 100.327 184.076 100.327 179.022 100.327C176.248 100.327 174.546 97.2726 176.02 94.9236C195.013 64.6746 195.927 31.7426 195.407 22.1216C194.199 -0.233356 169.679 -8.64437 158.921 11.0856C155.647 17.0896 154.533 24.6056 153.311 32.5376C150.407 44.7306 141.233 67.9126 112.612 81.2766C104.315 83.8826 95.929 88.2496 88.499 93.8106C83.623 97.4606 79.766 102.302 77.152 107.803C73.355 115.798 65.294 120.892 56.443 120.892H37.676C37.937 122.268 38.08 123.687 38.08 125.139C37.927 241.517 38.444 236.579 37.652 240.615C55.416 241.768 69.231 237.011 84.007 247.967C97.31 257.83 113.578 262.815 127.499 262.815H183.715V262.814C186.28 262.814 228.069 262.814 226.276 262.814C243.189 262.814 252.189 244.855 243.888 231.691C241.128 227.311 236.675 223.957 231.273 222.716C228.14 221.996 223.284 222.192 230.537 222.192C234.171 222.192 237.609 221.234 240.61 219.516C258.679 209.17 251.184 181.572 230.539 181.571C237.795 181.571 245.325 182.524 252.229 175.184C255.937 171.251 257.835 166.125 257.753 160.972C257.739 160.144 248.883 140.948 237.026 140.948Z" fill="#F7CF9C"/>
<path d="M103.018 85.0576C91.471 90.5176 82.254 97.0656 77.153 107.801C73.355 115.796 65.295 120.89 56.444 120.89H37.677C37.938 122.267 38.08 123.685 38.08 125.137C37.927 241.515 38.444 236.577 37.652 240.613C55.589 241.778 69.214 236.997 84.007 247.965C89.294 251.885 95.052 255.021 100.943 257.393C67.285 204.94 67.911 136.984 103.018 85.0576Z" fill="#EAB883"/>
<path d="M22.646 102.492C10.139 102.492 0 112.631 0 125.138V236.228C0 248.735 10.139 258.874 22.646 258.874C35.153 258.874 45.292 248.735 45.292 236.228V125.138C45.292 112.631 35.153 102.492 22.646 102.492Z" fill="#EFEFEF"/>
<path d="M22.646 189.882C10.139 189.882 0 179.743 0 167.236V236.228C0 248.735 10.138 258.874 22.646 258.874C35.154 258.874 45.292 248.736 45.292 236.228V167.236C45.292 179.743 35.153 189.882 22.646 189.882Z" fill="#DDDDDD"/>
</svg>
