<?xml version="1.0" encoding="iso-8859-1"?>
<!-- Generator: Adobe Illustrator 19.0.0, SVG Export Plug-In . SVG Version: 6.00 Build 0)  -->
<svg version="1.1" id="Capa_1" xmlns="http://www.w3.org/2000/svg" xmlns:xlink="http://www.w3.org/1999/xlink" x="0px" y="0px"
	 viewBox="0 0 512 512" style="enable-background:new 0 0 512 512;" xml:space="preserve">
<g>
	<path style="fill:#F7CF9C;" d="M237.026,315.848h-6.489c1.767,0-1.692-0.049,7.925-0.107c11.188,0,20.257-9.07,20.257-20.257
		c0-11.188-9.07-20.257-20.257-20.257h-21.785c-5.632,0-12.25,0-18.681,0c-7.074,0-13.92,0-18.974,0
		c-2.774,0-4.476-3.054-3.002-5.403c18.993-30.249,19.907-63.181,19.387-72.802c-1.208-22.355-25.728-30.766-36.486-11.036
		c-3.274,6.004-4.388,13.52-5.61,21.452c-2.904,12.193-12.078,35.375-40.699,48.739c-8.297,2.606-16.683,6.973-24.113,12.534
		c-4.876,3.65-8.733,8.491-11.347,13.992l0,0c-3.797,7.995-11.858,13.089-20.709,13.089H37.676c0.261,1.376,0.404,2.795,0.404,4.247
		c-0.153,116.378,0.364,111.44-0.428,115.476c17.764,1.153,31.579-3.604,46.355,7.352c13.303,9.863,29.571,14.848,43.492,14.848
		h56.216v-0.001c2.565,0,44.354,0,42.561,0c16.913,0,25.913-17.959,17.612-31.123c-2.76-4.38-7.213-7.734-12.615-8.975
		c-3.133-0.72-7.989-0.524-0.736-0.524c3.634,0,7.072-0.958,10.073-2.676c18.069-10.346,10.574-37.944-10.071-37.945
		c7.256,0,14.786,0.953,21.69-6.387c3.708-3.933,5.606-9.059,5.524-14.212C257.739,335.044,248.883,315.848,237.026,315.848z"/>
	<path style="fill:#F7CF9C;" d="M274.974,196.152h6.489c-1.146,0,1.701,0.049-7.925,0.107c-11.188,0-20.257,9.07-20.257,20.257
		c0,11.188,9.07,20.257,20.257,20.257c6.772,0,52.211,0,59.44,0c2.774,0,4.477,3.054,3.002,5.403
		c-18.993,30.249-19.907,63.181-19.387,72.802c1.207,22.355,25.727,30.766,36.486,11.036c3.274-6.004,4.388-13.52,5.61-21.452
		c2.904-12.193,12.078-35.375,40.699-48.739c8.297-2.606,16.683-6.973,24.113-12.534c4.876-3.65,8.733-8.491,11.347-13.992l0,0
		c3.797-7.995,11.858-13.089,20.709-13.089h16.707c-0.261-1.376-0.404-2.795-0.404-4.247c0.153-116.378-0.364-111.44,0.428-115.476
		c-15.983-1.094-29.635,3.517-44.294-7.352c-13.302-9.863-29.57-14.848-43.491-14.848h-56.216v0.001c-2.552,0-44.358,0-42.561,0
		c-13.78,0-22.987,12.218-20.257,24.677c2.053,9.324,10.307,15.91,19.758,15.942c0.676,0.003-3.111,0.002-3.762,0.002
		c-6.52,0-12.878,3.138-16.842,8.955c-8.974,13.284,0.427,31.666,16.841,31.667c-6.92,0-15.301-1.108-22.348,7.12
		c-3.224,3.768-4.945,8.554-4.866,13.479C254.25,176.224,262.974,196.152,274.974,196.152z"/>
</g>
<g>
	<path style="fill:#EAB883;" d="M362.793,251.757l-0.008,0.002c0,0,7.644-14.982-8.085-14.986c-7.264,0-27.645,0-21.721,0
		c2.774,0,4.476,3.054,3.002,5.402c-18.993,30.249-19.907,63.181-19.387,72.802c1.182,21.887,24.702,30.389,35.783,12.221
		c-2.007-3.355-3.324-7.469-3.581-12.221C348.33,306.367,349.025,279.08,362.793,251.757z"/>
	<path style="fill:#EAB883;" d="M103.018,259.958c-11.547,5.46-20.764,12.008-25.865,22.743l0,0
		c-3.798,7.995-11.858,13.089-20.709,13.089H37.677c0.261,1.377,0.403,2.795,0.403,4.247c-0.153,116.378,0.364,111.44-0.428,115.476
		c17.937,1.165,31.562-3.616,46.355,7.352c5.287,3.92,11.045,7.056,16.936,9.428C67.285,379.84,67.911,311.884,103.018,259.958z"/>
</g>
<g>
	<path style="fill:#EFEFEF;" d="M489.354,234.608c12.507,0,22.646-10.138,22.646-22.646v-111.09
		c0-12.507-10.138-22.646-22.646-22.646s-22.646,10.139-22.646,22.646v111.09C466.708,224.469,476.847,234.608,489.354,234.608z"/>
	<path style="fill:#EFEFEF;" d="M22.646,277.392C10.139,277.392,0,287.531,0,300.038v111.09c0,12.507,10.139,22.646,22.646,22.646
		s22.646-10.139,22.646-22.646v-111.09C45.292,287.531,35.153,277.392,22.646,277.392z"/>
</g>
<g>
	<path style="fill:#DDDDDD;" d="M489.354,165.615c-12.507,0-22.646-10.138-22.646-22.646v68.992
		c0,12.507,10.139,22.646,22.646,22.646S512,224.469,512,211.962V142.97C512,155.477,501.862,165.615,489.354,165.615z"/>
	<path style="fill:#DDDDDD;" d="M22.646,364.782C10.139,364.782,0,354.643,0,342.136v68.992c0,12.507,10.138,22.646,22.646,22.646
		s22.646-10.138,22.646-22.646v-68.992C45.292,354.643,35.153,364.782,22.646,364.782z"/>
</g>
<path style="fill:#EAB883;" d="M306.475,113.742c0-3.27-3.45-3.471-6.666-9.179c-7.556-13.347,2.052-30.275,17.697-30.275
	c-10.583,0-21.188,0-31.781,0c-12.779,0-21.97,10.622-20.594,22.652c0.971,8.498,7.254,15.531,15.597,17.445
	c3.132,0.721,8.071,0.524,0.735,0.524c-11.213,0-20.311,9.1-20.311,20.311c0,11.217,9.093,20.31,20.309,20.311
	c-6.657,0-11.308-0.612-17.069,2.726c-4.201,2.43-7.395,6.298-8.987,10.802c-0.629,1.789-1,3.615-1.119,5.48
	c-0.068,1.063-0.047,2.17,0.039,3.117c0.858,9.834,8.788,17.699,18.72,18.429v0.199c-10.958,0.264-19.765,9.211-19.765,20.232
	c0,11.188,9.07,20.258,20.257,20.258c3.105,0,29.633,0,32.202,0c-11.187-0.001-20.256-9.07-20.256-20.257
	c0-8.79,5.607-16.25,13.433-19.051v-0.001c0,0,1.152-0.464,1.152-1.561c0-0.869-1.152-1.346-1.152-1.346h0.006
	c-17.713-7.42-16.2-33.002,2.278-38.252c0,0,1.765-0.467,1.765-2.213c0-1.745-1.002-2.294-1.002-2.294l0.006-0.004
	c-12.472-8.811-11.202-27.694,2.553-34.677c-0.011-0.009-0.024-0.02-0.024-0.02S306.475,115.802,306.475,113.742z"/>
<g>
</g>
<g>
</g>
<g>
</g>
<g>
</g>
<g>
</g>
<g>
</g>
<g>
</g>
<g>
</g>
<g>
</g>
<g>
</g>
<g>
</g>
<g>
</g>
<g>
</g>
<g>
</g>
<g>
</g>
</svg>
