<svg width="259" height="263" viewBox="0 0 259 263" fill="none" xmlns="http://www.w3.org/2000/svg">
<path d="M21.694 121.867H28.183C27.037 121.867 29.884 121.916 20.258 121.974C9.07 121.974 0.00100708 131.044 0.00100708 142.231C0.00100708 153.419 9.071 162.488 20.258 162.488C27.03 162.488 72.469 162.488 79.698 162.488C82.472 162.488 84.175 165.542 82.7 167.891C63.707 198.14 62.793 231.072 63.313 240.693C64.52 263.048 89.04 271.459 99.799 251.729C103.073 245.725 104.187 238.209 105.409 230.277C108.313 218.084 117.487 194.902 146.108 181.538C154.405 178.932 162.791 174.565 170.221 169.004C175.097 165.354 178.954 160.513 181.568 155.012C185.365 147.017 193.426 141.923 202.277 141.923H218.984C218.723 140.547 218.58 139.128 218.58 137.676C218.733 21.298 218.216 26.236 219.008 22.2C203.025 21.106 189.373 25.717 174.714 14.848C161.412 4.985 145.144 0 131.223 0H75.007V0.000999451C72.455 0.000999451 30.649 0.000999451 32.446 0.000999451C18.666 0.000999451 9.459 12.219 12.189 24.678C14.242 34.002 22.496 40.588 31.947 40.62C32.623 40.623 28.836 40.622 28.185 40.622C21.665 40.622 15.307 43.76 11.343 49.577C2.36899 62.861 11.77 81.243 28.184 81.244C21.264 81.244 12.883 80.136 5.836 88.364C2.612 92.132 0.891001 96.918 0.970001 101.843C0.970001 101.939 9.694 121.867 21.694 121.867Z" fill="#F7CF9C"/>
<path d="M109.513 177.472L109.505 177.474C109.505 177.474 117.149 162.492 101.42 162.488C94.156 162.488 73.775 162.488 79.699 162.488C82.473 162.488 84.175 165.542 82.701 167.89C63.708 198.139 62.794 231.071 63.314 240.692C64.496 262.579 88.016 271.081 99.097 252.913C97.09 249.558 95.773 245.444 95.516 240.692C95.05 232.082 95.745 204.795 109.513 177.472Z" fill="#EAB883"/>
<path d="M236.074 160.323C248.581 160.323 258.72 150.185 258.72 137.677V26.587C258.72 14.08 248.582 3.94099 236.074 3.94099C223.566 3.94099 213.428 14.08 213.428 26.587V137.677C213.428 150.184 223.567 160.323 236.074 160.323Z" fill="#EFEFEF"/>
<path d="M236.074 91.33C223.567 91.33 213.428 81.192 213.428 68.684V137.676C213.428 150.183 223.567 160.322 236.074 160.322C248.581 160.322 258.72 150.184 258.72 137.677V68.685C258.72 81.192 248.582 91.33 236.074 91.33Z" fill="#DDDDDD"/>
<path d="M53.195 39.457C53.195 36.187 49.745 35.986 46.529 30.278C38.973 16.931 48.581 0.00299072 64.226 0.00299072C53.643 0.00299072 43.038 0.00299072 32.445 0.00299072C19.666 0.00299072 10.475 10.625 11.851 22.655C12.822 31.153 19.105 38.186 27.448 40.1C30.58 40.821 35.519 40.624 28.183 40.624C16.97 40.624 7.87201 49.724 7.87201 60.935C7.87201 72.152 16.965 81.245 28.181 81.246C21.524 81.246 16.873 80.634 11.112 83.972C6.911 86.402 3.717 90.27 2.125 94.774C1.496 96.563 1.125 98.389 1.006 100.254C0.937997 101.317 0.958998 102.424 1.045 103.371C1.903 113.205 9.83301 121.07 19.765 121.8V121.999C8.80701 122.263 0 131.21 0 142.231C0 153.419 9.06999 162.489 20.257 162.489C23.362 162.489 49.89 162.489 52.459 162.489C41.272 162.488 32.203 153.419 32.203 142.232C32.203 133.442 37.81 125.982 45.636 123.181V123.18C45.636 123.18 46.788 122.716 46.788 121.619C46.788 120.75 45.636 120.273 45.636 120.273H45.642C27.929 112.853 29.442 87.271 47.92 82.021C47.92 82.021 49.685 81.554 49.685 79.808C49.685 78.063 48.683 77.514 48.683 77.514L48.689 77.51C36.217 68.699 37.487 49.816 51.242 42.833C51.231 42.824 51.218 42.813 51.218 42.813C51.218 42.813 53.195 41.517 53.195 39.457Z" fill="#EAB883"/>
</svg>
