<?xml version="1.0" encoding="iso-8859-1"?>
<!-- Generator: Adobe Illustrator 19.0.0, SVG Export Plug-In . SVG Version: 6.00 Build 0)  -->
<svg version="1.1" id="Capa_1" xmlns="http://www.w3.org/2000/svg" xmlns:xlink="http://www.w3.org/1999/xlink" x="0px" y="0px"
	 viewBox="0 0 512 512" style="enable-background:new 0 0 512 512;" xml:space="preserve">
<path style="fill:#E0A773;" d="M351.361,181.92l-40.925-50.809c0,0-21.634,3.207-69.022,9.388s-56.262,58.166-56.262,58.166
	c-8.616,31.91-12.01,55.89,1.658,62.64c12.808,6.325,22.086-5.135,22.086-5.135c5.061-6.335,10.055-14.785,14.697-23.879
	l50.768-24.926c0,0,16.909,41.411,36.074,60.576c19.166,19.166,31.935,0,31.935,0C384.094,233.128,351.361,181.92,351.361,181.92z"
	/>
<g>
	<path style="fill:#D89D6C;" d="M340.273,255.053c-19.165-19.165-36.074-60.576-36.074-60.576l-29.224,14.349
		c3.191,7.507,18.435,42.087,35.461,59.114c19.166,19.166,31.935,0,31.935,0c2.479-2.068,4.688-4.197,6.664-6.367
		C346.298,260.235,343.371,258.15,340.273,255.053z"/>
	<path style="fill:#D89D6C;" d="M209.839,203.696c0,0,8.874-51.985,56.262-58.166c22.493-2.934,39.172-5.196,50.501-6.765
		l-6.166-7.655c0,0-21.634,3.207-69.022,9.388s-56.262,58.166-56.262,58.166c-8.616,31.91-12.01,55.89,1.658,62.64
		c7.777,3.841,14.247,1.124,18.135-1.603C199.531,248.929,203.071,228.762,209.839,203.696z"/>
</g>
<path style="fill:#F7CF9C;" d="M198.5,143.28l15.708,3.971c25.392,3.537,68.604-4.267,85.178-7.598
	c4.348-0.874,8.823,0.682,11.695,4.062c9.507,11.191,23.494,31.264,30.499,36.763c94.363,23.771,59.943,15.31,99.718,25.011
	c0,0-14.903-46.771-28.503-58.141c-26.945-22.525-52.767-63.371-81.642-63.371c-42.089,0-140.304,24.973-140.304,48.309
	C190.849,136.603,192.864,140.628,198.5,143.28z"/>
<path style="fill:#EAB883;" d="M325.571,116.585c-3.657-4.305-9.355-6.286-14.893-5.173c-85.378,17.161-111.782,8.808-111.885,8.813
	c-5.033,3.978-7.944,8.044-7.944,12.061c0,4.317,2.014,8.342,7.651,10.994l15.708,3.97c25.391,3.537,68.604-4.267,85.178-7.598
	c4.348-0.874,8.823,0.682,11.695,4.062c9.507,11.192,23.494,31.264,30.499,36.763l46.677,11.799
	C375.753,179.81,336.845,129.856,325.571,116.585z"/>
<path style="fill:#FFB70D;" d="M100.3,105.712c-2.17-6.94-8.674-12.013-16.305-12.013c-11.711,0-60.593,0-66.883,0
	c-9.407,0-17.076,7.698-17.076,17.077c0,72.966-0.288,68.56,0.771,71.946c2.171,6.94,8.674,12.013,16.305,12.013
	c6.33,0,59.399,0,66.883,0c7.631,0,14.135-5.073,16.305-12.013c1.258-4.023,0.573-5.984,0.771-18.11
	C100.808,108.716,101.676,110.109,100.3,105.712z"/>
<path style="fill:#F2A306;" d="M32.274,182.722c-1.028-3.289-0.771,1.235-0.771-71.946c0-9.372,7.664-17.077,17.076-17.077
	c-19.481,0-11.989,0-31.467,0c-9.407,0-17.076,7.698-17.076,17.077c0,72.967-0.288,68.56,0.771,71.946
	c2.171,6.94,8.674,12.013,16.305,12.013c19.478,0,11.986,0,31.467,0C40.948,194.735,34.445,189.662,32.274,182.722z"/>
<path style="fill:#EFEFEF;" d="M35.884,167.673l-15.089-18.746c-2.676-3.325-2.15-8.188,1.174-10.864s8.189-2.149,10.863,1.174
	l9.302,11.556l26.332-30.257c2.802-3.218,7.682-3.556,10.901-0.756c3.219,2.801,3.557,7.681,0.756,10.9L47.731,167.9
	C44.577,171.523,38.904,171.425,35.884,167.673z"/>
<path style="fill:#DDDDDD;" d="M154.806,188.837l-13.669-3.259c-32.892-7.843-45.797-28.447-55.519-36.42
	c-2.878-2.811-1.845-6.953,2.034-8.152c12.386-2.703,33.543-15.185,66.436-7.342l13.669,3.259
	C167.451,137.992,155.016,187.848,154.806,188.837z"/>
<path style="fill:#CCCCCC;" d="M105.216,135.496c-7.162,2.158-12.969,4.507-17.564,5.51c-3.879,1.2-4.912,5.342-2.034,8.152
	c9.722,7.974,22.627,28.578,55.519,36.421l13.67,3.26c0.25-1.176,4.112-16.556,6.427-25.864
	C153.298,159.832,130.874,160.585,105.216,135.496z"/>
<path style="fill:#666666;" d="M120.133,132.076c-0.002,0-0.005,0.001-0.007,0.001c-14.383,2.149-24.93,7.261-32.402,8.911
	c-3.542,0.764-5.229,5.12-2.105,8.169c1.35,1.102,2.983,2.684,4.213,3.921c5.065,5.084,11.308,12.133,20.416,18.626L120.133,132.076
	z"/>
<path style="fill:#535454;" d="M105.218,135.498c-6.765,2.037-13.325,4.595-17.567,5.508c-4.158,1.286-4.783,5.845-1.979,8.198
	c6.112,5.032,12.649,13.999,24.574,22.5l6.556-26.279C112.302,142.13,108.505,138.713,105.218,135.498z"/>
<path style="fill:#666666;" d="M469.294,219.239c-4.145-1.011-6.687-5.191-5.676-9.337l1.388-5.692
	c2.233-9.157-3.4-18.424-12.558-20.659l-87.412-21.319l-0.713,2.923c-1.601,6.566-10.302,8.046-13.985,2.379l-3.897-5.997
	c-5.461-8.404,2.163-19.208,11.938-16.835l97.732,23.837c17.435,4.252,28.161,21.897,23.909,39.333l-1.388,5.692
	C477.624,217.693,473.458,220.253,469.294,219.239z"/>
<path style="fill:#F94A46;" d="M511.462,250.916c-2.452,10.053-12.588,16.214-22.641,13.762c-1.477-0.36-10.627-2.586-19.91-4.851
	l9.014-36.399l19.775,4.847C507.752,230.727,513.914,240.863,511.462,250.916z"/>
<path style="fill:#EF3C3C;" d="M494.784,246.548c-1.688-0.412-10.907-2.655-21.3-5.188l-4.573,18.468
	c9.283,2.264,18.433,4.49,19.91,4.851c12.5,3.049,24.369-7.157,23.063-20.081C506.779,247.166,500.772,248.008,494.784,246.548z"/>
<path style="fill:#70B5E8;" d="M473.773,212.379c-103.59-25.265-137.183-34.432-302.982-76.103c-2.484-0.606-4.99,0.917-5.596,3.401
	l-11.046,45.292c-0.755,3.095,1.142,6.216,4.237,6.971l301.38,75.712c5.383,1.313,10.811-1.987,12.124-7.37l8.877-36.398
	C482.013,218.776,478.882,213.625,473.773,212.379z"/>
<g>
	<path style="fill:#52A5D8;" d="M469.883,240.604c-321.747-80.836-309.651-77.776-310.289-77.961l-5.445,22.326
		c-0.755,3.095,1.142,6.216,4.237,6.971l301.38,75.712c5.383,1.313,10.811-1.987,12.124-7.37l4.986-20.443
		C474.781,240.869,472.328,241.2,469.883,240.604z"/>
	<path style="fill:#52A5D8;" d="M473.773,212.378c-2.285-0.557-18.564-4.527-20.563-5.015l-13.476,55.256l20.032,5.032
		c5.383,1.313,10.811-1.987,12.124-7.37l8.878-36.397C482.013,218.776,478.882,213.625,473.773,212.378z"/>
</g>
<path style="fill:#4297CC;" d="M476.876,239.839c-5.75,2.828-9.027-0.475-30.342-5.101l-6.8,27.882
	c1.986,0.499,18.338,4.606,20.032,5.032c2.853,0.696,5.713,0.086,7.972-1.433c5.07-3.408,4.179-8.24,7.362-19.1L476.876,239.839z"/>
<path style="fill:#F7CF9C;" d="M352.063,240.595c-5.974,9.367-10.052,19.599-14.725,24.25c0,0-10.806,12.532-19.827,3.512
	l-26.581-35.065c-1.777-4.324-23.628-77.312-62.023-81.09c-1.568-0.147-3.443-0.095-3.339-0.095
	c-5.243,0.208-11.037,2.376-13.594,6.83c-2.492,4.175-0.396,8.16,7.217,48.278c3.362,17.505,6.472,35.708,6.472,45.86
	c0,16.921,29.618,65.311,43.493,87.052c4.578,7.173,7.015,15.499,7.015,24.009v32.83h128.372V346.3c0-3.196,0.625-6.357,1.807-9.326
	c11.172-28.062,20.257-53.94,25.764-76.27L352.063,240.595z"/>
<g>
	<path style="fill:#EAB883;" d="M352.063,240.595c-2.719,4.263-5.043,8.698-7.211,12.711c-0.092,0.17-0.185,0.342-0.276,0.511
		c-0.27,0.498-0.536,0.982-0.802,1.465c-0.103,0.186-0.206,0.376-0.308,0.56c-0.278,0.499-0.552,0.983-0.827,1.462
		c-1.774,3.097-3.494,5.742-5.301,7.541c0,0-6.609,7.663-13.804,6.69c0.003,0.002,27.143,19.789,46.813-6.69
		c3.481-3.465,6.633-10.029,10.484-17.023L352.063,240.595z"/>
	<path style="fill:#EAB883;" d="M258.672,253.076c0-24.057-16.135-86.042-14.465-92.33c0.303-1.057,0.766-1.804,1.086-2.288
		c-11.356-7.481-19.828-6.351-19.724-6.351c-7.245,0.288-14.931,4.599-14.624,10.918c0.477,10.378,14.719,67.708,14.719,90.051
		c0,16.921,29.618,65.311,43.493,87.052c4.578,7.173,7.015,15.499,7.015,24.009v32.83h33.008v-32.83
		c0-8.51-2.437-16.836-7.015-24.009C288.29,318.387,258.672,269.997,258.672,253.076z"/>
</g>
<path style="fill:#EFEFEF;" d="M404.52,384.605c-8.894,0-93.104,0-106.495,0h-28.234c-11.99,0-21.709,9.719-21.709,21.709
	c0,11.99,9.719,21.709,21.709,21.709h28.234c13.304,0,97.562,0,106.495,0c11.99,0,21.709-9.719,21.709-21.709
	C426.229,394.324,416.509,384.605,404.52,384.605z"/>
<path style="fill:#DDDDDD;" d="M333.853,406.314c0-11.99,9.719-21.709,21.709-21.709h-57.538H269.79
	c-11.99,0-21.709,9.719-21.709,21.709s9.719,21.709,21.709,21.709c16.867,0,55.273,0,85.771,0
	C343.572,428.023,333.853,418.304,333.853,406.314z"/>
<g>
</g>
<g>
</g>
<g>
</g>
<g>
</g>
<g>
</g>
<g>
</g>
<g>
</g>
<g>
</g>
<g>
</g>
<g>
</g>
<g>
</g>
<g>
</g>
<g>
</g>
<g>
</g>
<g>
</g>
</svg>
